<?xml version="1.0" encoding="utf-8"?>
<!-- Generator: Adobe Illustrator 25.4.1, SVG Export Plug-In . SVG Version: 6.00 Build 0)  -->
<svg version="1.1" id="Layer_1" xmlns="http://www.w3.org/2000/svg" xmlns:xlink="http://www.w3.org/1999/xlink" x="0px" y="0px"
	 viewBox="0 0 4618.5 1257.7" style="enable-background:new 0 0 4618.5 1257.7;" xml:space="preserve">
<style type="text/css">
	.st0{fill:#FFFFFF;}
</style>
<g>
	<g>
		<g>
			<path class="st0" d="M3216,618.9c46.1,53,75.6,115.9,133.4,155.2c-38.7,17.9-86.4,7.7-110.1-25.4c-21.8-30.7-41.4-63.1-61.9-94.7
				c-18.2-28.3-18.2-28.3-55.3-24.5c0,37.9-1.4,76.2,0.9,114.3c0.6,11.4,11.4,22.4,17.6,33.7c-34.6,0-71.4,0-112.3,0
				c30.7-18.1,29.4-45.5,29.2-73c-0.5-72.9-0.5-145.9,0.2-218.8c0.3-25-6.9-45-28.9-61c20.6,0,41.3-0.5,61.9,0.2
				c45.3,1.1,90.9,0,136,4.7c36,3.8,64.4,24.5,79.8,58.7c23.5,52.4-4.1,106.7-62.3,124.5C3236.2,615.2,3227.9,616.4,3216,618.9z
				 M3120.9,602.4c19.3,0,35.1,0.3,51,0c45.5-0.8,71.7-27.3,72.7-73.3c0.9-41-19.6-73.3-51.5-76.6c-24.4-2.4-49.2-0.5-72.1-0.5
				C3120.9,501.3,3120.9,550.3,3120.9,602.4z"/>
			<path class="st0" d="M2238.9,777.5c-38.1,0-79.3,0-123.3,0c17.3-14.6,25.4-31,16.9-52.2c-7.4-18.4-14-37-21.8-55.3
				c-1.1-2.4-7.5-3.6-11.6-3.6c-38.4-0.3-76.8-0.6-115.2,0.3c-5.3,0.2-12.8,6.6-14.9,12c-5.6,14.9-8.4,30.7-13.2,45.9
				c-6,19.4-3.8,36.4,16.1,52.1c-33.9,0-64.3,0-98.8,0c32.5-16.4,45-43.5,55.9-72.6c29.8-80.2,61-159.9,90.2-240.3
				c4.1-11.3,0.6-25.4,0.6-39.6c-4.2,0.8-3,0.3-1.8,0.3c21.1,0.5,46.7-6.3,61.9,3.5c14,9,17,35.4,24.5,54.2
				c33,83.1,64.7,166.5,99.2,249C2210.8,749,2227.2,762.7,2238.9,777.5z M2045.9,495.6c-1.5-0.9-3-1.7-4.5-2.6
				c-19.6,48.2-39.1,96.5-59.3,146.3c41.4,0,78.9,0,118,0C2081.6,590.6,2063.7,543,2045.9,495.6z"/>
			<path class="st0" d="M3519.7,425.2c26.5,0,49.4,0,73.2,0c34,89,68.1,177.5,102.1,266c5.4,14.3,10.1,29.2,17.9,42.2
				c9.6,15.8,22.1,30,33.1,44.4c-37,0-77.4,0-121.5,0c26.3-18.8,22.3-40.2,13.2-64c-18.4-47.6-17.6-47.7-69.7-47.3
				c-27.4,0.2-54.8,0-84.6,0c-1.7,37.6-41.3,72.3-1.5,111.3c-31,0-60.7,0-94.7,0c50-31,55.7-83.7,73.8-129.3
				c24.4-61.7,46.2-124.4,69.6-186.4C3535.7,448,3534.3,436.2,3519.7,425.2z M3610.2,639.6c-18.8-49.4-36.7-96.4-54.7-143.3
				c-1.7,0.2-3.2,0.3-4.8,0.5c-18.8,47-37.6,94.1-57.2,142.9C3533.3,639.6,3570,639.6,3610.2,639.6z"/>
			<path class="st0" d="M2757,426.1c17.2,0,43.7-7.5,59.2,2.3c14.6,9.2,17.9,36.4,25.6,56c28.9,73.6,57.7,147.4,86.4,221.2
				c10.4,26.6,20.5,53.9,47.3,71.5c-39.7,0-79.5,0-120.3,0c39.6-36.6,2.1-69.9-6.2-104.8c-0.6-2.7-8-5.4-12.2-5.6
				c-37.8-0.6-75.4-0.9-113.2-0.2c-4.8,0.2-11.9,5.9-14,10.7c-5.7,13.4-9.9,27.6-13.9,41.7c-7.8,27.7-5.7,36.9,13.4,58.6
				c-30,0-58.9,0-90.6,0c45.5-33.1,52.7-85.1,70.6-131c24.1-61.9,46.4-124.4,68.2-187.1C2760.8,449.7,2757.3,437.7,2757,426.1z
				 M2837.8,639.7c-19-49.7-37.2-97.6-57.2-150c-20.6,52.4-39.6,100.4-59,150C2760.9,639.7,2797.8,639.7,2837.8,639.7z"/>
			<path class="st0" d="M2561,510.1c-6.3-6.6-12.9-12.9-18.7-20c-34.5-42.6-79.5-54.8-130.5-41.3c-44.6,11.9-67.1,46.4-78.1,89
				c-13.4,51.2-10.4,101.2,11.3,149.8c18.7,41.7,49.1,67.9,95.6,72.4c49.2,4.8,86.6-16.6,115.6-54.4c6.2-8,10.4-17.3,18.2-30.7
				c-3.8,26.9-6.5,48.9-10.2,70.8c-0.6,3.6-5,7.2-8.4,9.5c-64,43.4-167.1,40.5-229.7-6.5c-65.3-48.9-86-154.8-46.5-231.1
				c46.2-89.3,145.9-118.3,240.4-90c27.9,8.3,47.7,19,42,53c-1.5,8.7,1.8,18.4,2.9,27.6C2563.5,508.7,2562.3,509.3,2561,510.1z"/>
		</g>
		<g>
			<path class="st0" d="M2077.1,1049.7c9.5,3.3,17.9,6,26.2,9c42.9,15.8,63.1,45.6,59.3,87.3c-3.8,39.9-37.2,78.4-76.9,81.6
				c-70.2,5.6-140.6,7.7-212.4,8.6c32.4-19.9,29.8-50.3,29.7-79.8c-0.2-69.7-0.2-139.4,0.2-209.1c0.2-25.3-4.2-48.2-29.8-62.6
				c69.3,6,138.7-11,206.7,9.2c37.8,11.1,60.2,35.8,62.8,75.3c2.3,34.5-19,55.1-46.7,70.5C2090,1042.7,2083.9,1045.9,2077.1,1049.7z
				 M1965.2,1062.9c0,48.6,0,97.4,0,147.8c18.5,0.9,35.7,2.1,52.8,2.6c46.8,1.2,75.6-26.5,77.1-73.6c1.4-45.9-25.4-74.8-71.8-76.6
				C2004.4,1062.3,1985.4,1062.9,1965.2,1062.9z M1964.2,1037.3c21.4,0,41,1.1,60.4-0.3c29.2-2,48.5-22.3,51.3-51.8
				c3.6-36.7-11.7-66.5-41.1-72.6c-22.6-4.5-46.4-3.9-70.8-5.6C1964.2,952.3,1964.2,994.3,1964.2,1037.3z"/>
			<path class="st0" d="M2698.1,1087.5c0,37.5-1.4,74.8,0.8,112c0.8,11.7,11.1,22.9,17.2,34.3c-33.3,0-68.8,0-110.8,0
				c28.2-13.4,30.4-34.8,30.4-55.7c0.3-55.3-0.6-110.7-1.1-165.9c-0.2-24.7-0.6-49.5-0.8-74.2c-0.2-22.7-8.1-41.1-29.2-54.8
				c16,0,31.9-0.3,48,0c45.3,1.1,90.8,0.3,136,3.9c52.7,4.2,91.2,40.2,95,84.2c4.2,49.4-22.9,86.7-71.7,98.6
				c-6.8,1.7-13.4,3.2-22.9,5.3c46.4,51.5,76.3,113.7,132.9,154.2c-39.9,17.5-85.2,6.8-108.2-25.9c-21.2-30.3-42.8-60.7-60.7-93
				C2740.4,1087.3,2724.3,1080.7,2698.1,1087.5z M2696,909.8c0,51.2,0,99.8,0,149.2c12.2,0.6,22.4,1.1,32.5,1.8
				c49.7,4.1,85.2-18.1,88.7-71.8c2.7-43.1-22-76-60.5-78.9C2736.4,908.4,2715.9,909.8,2696,909.8z"/>
			<path class="st0" d="M4121.6,1068.9c-21.1,12.5-32.2,29.2-28.5,55c2.1,14.5,0.5,29.4,0.5,44.1c0,38.5,0,38.7,27.9,65.2
				c-40.8,0-79.3,0-122.6,0c26.6-12.2,30.6-32.2,30.4-55c-0.5-80.5-0.5-161.1-0.2-241.8c0.2-22.4-10.5-38.4-29.2-51.6
				c41.1,0,79.9,0,118.8,0c-22.3,17-26,38.8-25.4,63.7c0.9,37.5,0.3,75,0.3,112.5c1.7,1.1,3.3,2.1,5,3.3
				c39.9-44.1,80.8-87.5,119.2-132.9c15.8-18.7,13.4-26.8-1.5-47.4c32.8,0,64.7,0,101.2,0c-62.5,38.5-105.5,92.3-156,140.3
				c61,64.4,95.2,148.7,166.2,205.2c-2,1.2-4.8,4.2-7.7,4.2c-21.7,0.6-43.5,1.8-65.2,0.2c-8.4-0.6-19.1-6.5-23.9-13.2
				c-20.9-29.5-39.3-60.7-60.1-90.2C4155.8,1109.3,4138.5,1090,4121.6,1068.9z"/>
			<path class="st0" d="M3669.7,883.6c86.1,0,167,0,249.8,0c0,27.1,0,54.2,0,87.3c-31.3-78.9-96.4-59.5-153.4-61.7
				c0,43.5,0,85.8,0,131c42.3-4.8,85.8,13.7,121.5-29.1c0,30.4,0,54.2,0,83.9c-35.8-42-79.8-25-121.5-29.1c0,48.6,0,95.2,0,142.7
				c32.4,0,65.8,3.2,98.3-0.9c31.5-3.9,49.4-29.5,64.7-55.4c2-3.3,3.2-6.9,4.8-10.4c0.2-0.3,1.1-0.3,4.1-1.2
				c-4.4,31.3-8.6,61.7-13.1,93.2c-81.8,0-162.6,0-246.2,0c23.9-14.5,26.2-36.4,26-60.1c-0.5-76.8-0.2-153.4-0.5-230.2
				C3704.3,919.9,3698.3,898.4,3669.7,883.6z"/>
			<path class="st0" d="M2293.4,1124.5c-1.7,36.1-39.1,70.8-1.4,109.6c-30.3,0-59.2,0-92.6,0c33.9-21.4,45.9-52.7,57.5-84.5
				c24.2-66.5,48.9-132.8,73.3-199.2c3.3-8.9,6.2-18.1,9-27.3c4.5-14.9,5.1-29.1-12.3-39.6c26,0,49.5,0,74.5,0
				c21.8,56.9,43.7,114,65.5,171c15.7,41.1,30.9,82.4,47.4,123.2c8.4,20.8,17.9,41.4,39.9,54.7c-40,0-79.9,0-120.3,0
				c22.3-17,25.1-26.8,15.5-54.4c-6.3-17.9-8.7-41.9-21.5-51.5c-12-9-35.7-3-54-3.2c-24.2-0.2-48.6,0.2-72.9,0.3
				C2299.2,1123.7,2297.2,1124,2293.4,1124.5z M2365.2,949.5c-1.5-0.2-3-0.2-4.5-0.3c-17.9,48.2-35.8,96.2-54.5,146.6
				c39.6,0,75,0,112.8,0C2400.6,1045.9,2382.9,997.7,2365.2,949.5z"/>
			<path class="st0" d="M3199.9,1233.8c26.9-21.2,29.1-29.7,18.1-58.1c-3.9-10.1-9.8-20-11.1-30.4c-2.6-20.3-14.5-23.3-31.8-22.9
				c-31.6,1.1-63.4-0.2-95.2,1.1c-5.6,0.2-13.7,5.9-15.8,11c-5.7,13.4-8.6,28-13.1,42c-7.1,21.7-5.1,41,17.5,57.5
				c-33.3,0-62.8,0-97.1,0c50.3-31.3,56.6-83.4,74.2-128.7c23-59.5,42.9-120,64.6-179.9c5.6-15.5,7.1-29.8-9.5-41.3
				c24.4,0,47.1,0,70.9,0c22.9,59.8,45.8,119.2,68.7,178.7c14.2,36.9,26.8,74.4,43.1,110.4c9.8,21.8,25.1,41.3,37.3,61
				C3284.2,1233.8,3244,1233.8,3199.9,1233.8z M3188.5,1094.8c-18.4-48.3-35.7-94.4-53.1-140.3c-1.7,0.3-3.3,0.8-5,1.1
				c-17.3,46.2-34.6,92.3-52.2,139.3C3115.8,1094.8,3151,1094.8,3188.5,1094.8z"/>
			<path class="st0" d="M3383.3,1234.2c32.4-20.3,24.2-52.1,24.5-79.5c0.8-67.6-0.9-135-0.8-202.6c0-25.9-2.1-49.8-32.4-67.1
				c43.4,0,81,0,123.8,0c-40.5,28.8-30.1,68.5-31.3,104.8c-1.2,36.4-0.3,72.9-0.3,109.3c0,36.3,0,72.6,0,110.1
				c61.4,1.5,125.3,13.9,155.2-64.1c1.2,1.7,2.4,3.3,3.6,5c-5.4,27.9-10.8,55.7-16.6,84.3
				C3533.3,1234.2,3458.3,1234.2,3383.3,1234.2z"/>
		</g>
	</g>
	<g>
		<path class="st0" d="M840.3,872.4c42.5,41,84.1,82.6,126,124c0.9,0.7,1.6,1.6,2.2,2.4c4.4,5.3,8.6,10.6,12.8,16.2l0,0l0,0
			c4.2-5.5,8.4-10.9,12.8-16.2c0.7-0.9,1.5-1.5,2.2-2.4c41.9-41.4,83.5-83,126-124c9.7-9.1,19.3-18.2,28.6-27.5
			c38.5-38.5,66.7-82.6,66.4-139.9c-0.2-53.8-29.7-97.9-78.8-118c-6-2.4-12.2-4.2-18.4-5.5c-30.3-7.8-60.9-2-89.9,17.7
			c-0.9,0.7-1.6,1.1-2.4,1.8c-8,5.3-15.5,11.5-22.4,18.8c-0.4,0.4-0.9,0.9-1.1,1.3c-7.8,7.3-15.3,15.1-23,22.4
			c-7.8-7.3-15.3-15.1-23-22.4c-0.4-0.4-0.9-0.9-1.1-1.3c-6.9-7.1-14.4-13.5-22.4-18.8c-0.9-0.7-1.5-1.1-2.4-1.8
			c-29-19.5-59.6-25.2-89.9-17.7c-6.2,1.3-12.4,3.1-18.4,5.5c-49.2,19.9-78.6,64-78.8,118c-0.2,57.1,27.7,101.4,66.4,139.9
			C821.1,854.2,830.6,863.3,840.3,872.4z M871.1,614c34.5,1.3,57.6,22.4,75.5,48.9c12.8,19,23.3,39.9,34.1,58.5
			c0.2-0.4,0.4-0.9,0.9-1.3c0.2,0.4,0.4,0.9,0.9,1.3c10.6-18.6,21.3-39.4,34.1-58.5c17.9-26.6,41-47.6,75.5-48.9
			c3.3-0.2,6.4,0,9.7,0.2c9.3,1.1,18.6,3.5,28.1,7.8c36.1,15.9,56.9,58,50.9,101.2c-5.5,38.5-27,68-53.1,94.3
			c-24.6,24.8-50.7,48.1-76.2,72c-23.3,21.7-46.9,43.4-69.5,64.4c-22.8-21-46.3-42.7-69.5-64.4c-25.5-23.9-51.6-47.2-76.2-72
			c-26.1-26.4-47.6-55.8-53.1-94.3C777,680,798,637.9,834.1,622c9.5-4.2,18.8-6.9,28.1-7.8C864.7,614,867.8,613.8,871.1,614z"/>
		<path class="st0" d="M1287.2,589.9c-0.2-1.6-0.2-3.1-0.4-4.7c-0.4-10.2-1.3-20.2-3.1-30.1c-7.1-45.4-27.9-84.8-59.6-119.6
			c-33.9-37.2-76.8-61.8-117.8-89.2c-15.3-10.2-31-19.7-46.7-29.5c-10.6-7.1-21.5-14-32.1-21.3c-14.8-10-28.1-22.4-42.1-34.1
			c-1.3-1.3-2.4-2.4-3.8-3.8c-0.2,0-0.2,0.2-0.4,0.2s-0.2-0.2-0.4-0.2c-1.1,1.3-2.4,2.4-3.8,3.8c-14,11.7-27,24.1-42.1,34.1
			c-10.6,7.1-21.3,14.2-32.1,21.3c-15.5,9.7-31.4,19.3-46.7,29.5c-41,27.5-84.1,52-117.8,89.2c-31.7,34.8-52.5,74.2-59.6,119.6
			c-1.8,10-2.7,19.9-3.1,30.1c-0.2,1.6-0.4,3.1-0.4,4.7c-0.2,3.5-0.4,7.3-0.7,12.2c0.4,0,0.7,0,1.1,0c0,0,0,0,0,0.2
			c13.1,0,24.6,0,36.5,0c-1.3-20.2,0.2-39.2,4.7-57.4c2-7.8,4.4-15.1,7.1-22.4c6.6-16.6,15.9-32.3,27.7-47.4
			c22.1-28.1,49.8-50.3,79.7-69.8c49.2-31.9,98.5-63.3,149.5-95.9c50.9,32.8,100.3,64.2,149.5,95.9c29.9,19.3,57.4,41.4,79.7,69.8
			c11.7,15.1,21,30.8,27.7,47.4c2.9,7.1,5.1,14.6,7.1,22.4c4.4,18.2,6,37.2,4.7,57.4c12.2,0,23.7,0,36.5,0c0,0,0,0,0-0.2
			c0.4,0,0.7,0,1.1,0C1287.6,597.2,1287.4,593.6,1287.2,589.9z"/>
		<path class="st0" d="M1400.8,943.9c0,1.1-0.2,2.2-0.2,3.5c0.4-0.9,0.9-2,1.6-2.9c0.4,0.2,1.1,0.4,1.6,0.9
			c9.3-19,18.4-38.3,27.7-57.1c19.3-39,39.6-77.1,72.2-107c18.4-16.8,39.9-26.1,60.2-26.8c20.8-0.2,40.7,8.2,54.3,24.4
			c21.3,25.7,13.3,65.3-15.3,76.8c-2.4,0.9-4.7,1.6-6.9,2c-5.1-0.7-9.5-4.2-13.7-11.3c-8.6-14.2-17.3-18.6-27.7-14.2
			c-1.1,0.4-2.2,1.1-3.3,1.8c-0.2,0.2-0.4,0.4-0.9,0.4c-0.2,0.2-0.4,0.4-0.7,0.4c-2,1.3-3.5,3.1-5.1,4.9c-4.9,6.2-7.1,14.6-6,22.8
			c0.4,3.5,1.3,7.1,2.9,10.4c7.8,17.1,22.6,23.9,40.3,25.5c17.5,1.6,34.3-3.3,47.8-13.1c33.9-23.3,46.5-74.2,24.4-114.3
			c-27.2-49.4-84.4-66-133.5-40.7c-1.1,0.4-2.4,1.1-3.5,1.8c-38.3,19.3-62.2,52.3-80.8,89.7c-17.7,35.7-30.1,73.1-34.8,114.3
			c-0.4,2.7-0.9,5.1-1.3,7.8C1400.6,943.7,1400.6,943.7,1400.8,943.9z"/>
		<path class="st0" d="M440.4,581.9c12.4,3.5,22.8,9.1,31.2,17.1c0.2,0.4,0.7,0.7,0.9,1.1c8.6,12.2,15.3,26.4,20.4,40.7
			c6.4,18.4,14.4,35,28.1,48.9c8,8,14.8,17.1,23,27c0.2,0.4,0.4,0.7,0.7,1.1c0,0,0,0,0-0.2c0.4,0.7,0.9,1.1,1.5,1.8
			c0.7-3.1,1.3-6.2,2-9.3c7.5-18.8,8.9-40.7,4.9-61.3c-4-24.6-15.7-46.3-33.2-60.9c-4-3.3-8.2-6.4-12.6-8.9
			c-7.5-4.2-15.3-6.9-23-8.2c-17.1-3.3-33.2-0.4-48.7,8.9c-0.2,0.2-0.7,0.2-0.9,0.4l0,0c-0.4,0.2-1.1,0.7-1.6,0.9
			C435.8,581.4,438,581.7,440.4,581.9z"/>
		<path class="st0" d="M1414.7,710.1c0.7,3.1,1.3,6.2,2,9.3c0.4-0.7,0.9-1.1,1.6-1.8c0,0,0,0,0,0.2c0.2-0.4,0.4-0.7,0.7-1.1
			c8.2-10,15.3-19,23-27c13.7-14,21.7-30.8,28.1-48.9c4.9-14.2,11.5-28.3,20.4-40.7c0.2-0.4,0.7-0.7,0.9-1.1
			c8.4-8,18.8-13.5,31.2-17.1c2.2-0.2,4.7-0.4,7.1-0.4c-0.4-0.4-1.1-0.7-1.6-0.9l0,0c-0.2-0.2-0.7-0.2-0.9-0.4
			c-15.5-9.3-31.7-12.4-48.7-8.9c-7.8,1.3-15.3,4-23,8.2c-4.4,2.4-8.6,5.5-12.6,8.9c-17.5,14.4-29.2,36.1-33.2,60.9
			C1405.9,669.6,1407.2,691.3,1414.7,710.1z"/>
		<path class="st0" d="M673.6,999.3c7.8,31.9,23.9,60,52,79.3c2.2,1.8,4.7,3.5,6.9,5.1c6.2,5.8,12.2,11.5,18.4,17.1
			c0.7-0.7,1.3-1.1,2-1.8c3.5,2.7,7.1,5.3,10.6,8c1.3-1.5,2.4-2.9,3.8-4.4c-6.2-5.8-12.2-11.3-18.4-17.1c-1.8-2.9-3.8-6-5.8-8.6
			c-4.4-6.2-8.2-12.4-11.7-18.8c-21-46.5-29-92.1,6-134.9c2.7-1.8,5.5-3.3,9.1-4.6c-1.6-0.2-3.1-0.4-4.4-0.4
			c0.2-0.2,0.4-0.4,0.7-0.9c-4.4-0.2-8.6,0-12.6,0.4c-28.6,0.9-49.4,16.6-56,40.5C670.1,969.8,669.8,983.8,673.6,999.3z"/>
		<path class="st0" d="M1671.6,1064.6c0-0.4,0-0.7,0-1.1c0-1.3,0-2.7-0.2-4.2c0-0.2,0-0.7,0-0.9c-4.2-66-64.2-108.5-114-111.2
			c-1.1,0-2.4,0-3.5-0.2c-12.4-1.1-25.7-0.7-39.2,1.3c-50.3,7.1-93.9,29-134.4,58.2c-14,10.2-27.2,21.3-41,31.9
			c0.4-4.4,1.6-8.2,2.9-11.7c0.7-1.3,1.1-2.9,1.8-4.2c0.4-0.9,0.9-2,1.3-2.9c18.4-38.1,27-78.2,27-120.2c0-0.2,0-0.2,0-0.4
			c0.7-14.8,0.9-29.7,0.9-44.5c0.2-86.8,0.2-173.4,0.4-260.2c0.2-76.2-19.9-141.1-58.7-195.7c-17.9-25.9-39.6-48.1-63.6-67.5
			c-0.7-0.7-1.6-1.3-2.4-2c-0.4-0.4-0.9-0.9-1.6-1.1c-1.1-0.9-2.2-1.8-3.3-2.7c-0.4-0.2-0.7-0.7-1.1-0.9c-0.7-0.4-1.3-1.1-2.2-1.6
			c-15.5-12.2-31.9-23.3-48.7-34.1c-45.8-29.5-93.7-55.8-138.6-86.6c-0.4-0.2-0.7-0.4-1.1-0.9c-6.2-4.7-12.2-9.7-17.9-14.8
			c-12.2-11.5-23.3-24.6-34.1-37c-2.2-2.7-4-5.3-5.1-8.2c-2.4-10,1.1-20.4,10-33.2c2.7-4,4.4-7.5,5.1-11.1c0.4-0.9,1.1-1.6,1.5-2.2
			c-0.4-0.9-0.7-1.8-1.1-2.7c-0.2-4.4-1.8-8.9-4.4-14c-10-19.3-17.1-39.9-24.6-58c-0.2,0.4-0.2,0.9-0.4,1.1
			c-0.2-0.4-0.2-0.9-0.4-1.1c-7.5,18.2-14.6,39-24.6,58c-2.7,5.1-4.2,9.7-4.4,14c-0.4,0.9-0.7,1.8-1.1,2.7c0.4,0.7,0.9,1.6,1.6,2.2
			c0.7,3.5,2.4,7.1,5.1,11.1c8.9,12.8,12.4,23.3,10,33.2c-1.1,2.9-2.9,5.5-5.1,8.2c-10.8,12.6-21.9,25.7-34.1,37
			c-5.8,5.1-11.7,10-17.9,14.8c-0.4,0.2-0.7,0.4-1.1,0.9c-45,30.6-92.8,57.1-138.6,86.6c-16.8,10.9-33.2,21.9-48.7,34.1
			c-0.7,0.4-1.3,1.1-2.2,1.6c-0.4,0.2-0.7,0.7-1.1,0.9c-1.1,0.9-2.2,1.8-3.3,2.7c-0.4,0.4-0.9,0.9-1.6,1.1c-0.9,0.7-1.6,1.3-2.4,2
			c-23.9,19.7-45.6,41.6-63.6,67.5c-38.8,54.7-58.9,119.6-58.7,195.7c0.4,86.8,0.2,173.4,0.4,260.2c0,14.8,0.2,29.7,0.9,44.5
			c0,0.2,0,0.2,0,0.4c0,42.1,8.6,82.2,27,120.2c0.4,0.9,0.9,2,1.3,2.9c0.7,1.3,1.1,2.9,1.8,4.2c1.3,3.5,2.4,7.5,2.9,11.7
			c-13.5-10.6-26.8-21.7-41-31.9c-40.5-29.2-84.1-51.2-134.4-58.2c-13.5-2-26.8-2.4-39.2-1.3c-1.1,0-2.4,0-3.5,0.2
			c-50,2.9-109.8,45.2-114,111.2c0,0.2,0,0.7,0,0.9c0,1.3-0.2,2.7-0.2,4.2c0,0.4,0,0.7,0,1.1c0,6,0.2,12.4,1.3,18.8
			c8.9,63.1,74.8,108.1,137.3,94.6c39.6-8.6,59.1-32.1,54.7-66.4c-2.2-18.4-17.7-31.9-35-34.1c-0.9-0.2-1.5-0.4-2.4-0.7
			c-12.4-3.5-24.1,3.1-31.2,13.9c-6.2,9.5-6.6,20.4,0.2,30.3c4.2,6.2,10.6,9.7,18.6,10.9c3.3,0.7,7.1,0.7,10.6,0
			c0.4,0,1.1-0.2,1.5-0.2c0.4,0,0.7,0,1.1-0.2c-10,13.5-31.7,19-52,13.7c-21-5.5-38.1-19-48.1-36.5c-0.2-0.7-0.7-1.3-0.9-2
			c-10.2-23.3-10.4-47.6-2.4-67.8c6.2-14.4,16.6-26.1,29.7-34.3c8.6-5.3,17.7-8.9,26.8-11.1c4.4-1.1,8.9-1.8,13.5-2.2
			c48.7-4,91.5,13.7,133.3,34.5c0.4,0.2,0.9,0.4,1.3,0.7c14.8,8,29.2,16.8,43.6,25.9c25.5,16.2,50.3,33.2,75.3,50.3
			c10.6,8.2,21.3,16.4,31.7,24.8c1.3,1.1,2.2,2.7,3.8,4.6c-2.4-0.7-4.9-1.1-7.3-1.8c-15.3-4-29.7-8.4-44.3-10.6
			c-2-0.2-4-0.4-6.2-0.7c-3.3-0.7-6.9-1.6-10.2-2.2c-0.2,0.7-0.4,1.3-0.7,2c-8,0.2-15.7,1.8-23,4.7c-37.4,10.6-46.7,34.8-28.6,69.3
			c6.4-5.5,13.1-11.1,19.7-16.6c26.8-17.9,55.4-24.1,85.7-21.9c11.5,1.1,22.8,3.5,34.3,7.3c12,3.8,23.9,7.5,35.9,11.3
			c3.1,0.9,5.5,1.1,6.9,0.2c2.4,0.7,5.1,1.3,7.5,2c-0.2,0.7-0.7,1.3-0.9,2.2c2.2-0.2,4.2-0.7,6-0.9c9.7,2.4,19.7,4.6,29.7,6.4
			c3.3,1.1,6.6,2,10.2,2.2c2.7,0.2,5.3,0.2,8,0.2c1.1,0.2,2,0.2,3.1,0.2c49.2,4.7,105.6-15.5,126.7-71.5c4.2-10.9,6.2-22.1,6.2-33.2
			c0-3.8-0.2-7.5-0.4-11.3c-1.1-9.7-4-19.3-8.2-27.9c-8.2-16.8-21.7-30.8-40.1-39.2c-4.2-2-8.9-3.5-13.3-4.6
			c-2.2-0.4-4.2-1.1-6.4-1.6c-35.4-6.6-65.1,17.7-64.2,51.6c0.4,14.8,8.6,29.2,21.3,31h0.2c6.9,2.2,14.6,1.8,20.8-2.2
			c10.9-6.9,13.1-18.8,5.8-31.9c-1.8-3.3-4-6.4-6.9-11.1c7.3,0,14.6,0.2,21.3,1.6c7.1,1.6,13.3,4.6,19,9.7
			c20.8,19,22.1,52.5,2.4,75.5c-12.4,14.6-27,23.5-42.7,27.9c-7.5,1.8-15.5,2.7-23.7,2.9c-52,1.1-94.8-22.1-134.2-54
			c-11.3-9.1-21.3-18.6-29.9-28.6c-21.7-26.1-37.6-56.2-47.2-91c-0.7-2.2-1.1-4.2-1.5-6.4c-4.2-19.5-6.4-40.1-6.2-61.6
			c0.2-95.7,0.2-191.5,0-287.2c0.2-21.5,0.7-43.2,0.9-64.7c4.7-60.7,26.1-112.7,62-156.3c29.7-35.7,67.1-62.9,107-87.7
			c64-39.9,135.1-69.8,184.9-131.1c49.8,61.3,120.9,91.2,184.9,131.1c39.9,24.8,77.3,52,107,87.7c35.9,43.8,57.1,95.7,62,156.3
			c0.4,21.5,0.7,43.2,0.9,64.7c-0.2,95.7,0,191.5,0,287.2c0,21.5-2,42.1-6.2,61.6c-0.4,2.2-1.1,4.2-1.6,6.4
			c-9.5,34.8-25.5,64.9-47.2,91c-8.9,10-18.8,19.7-29.9,28.6c-39.4,31.9-82.2,55.1-134.2,54c-8.2-0.2-16.2-1.1-23.7-2.9
			c-15.7-4.4-30.3-13.3-42.7-27.9c-19.9-23-18.4-56.7,2.4-75.5c5.8-5.3,12.2-8.2,19-9.7c6.6-1.1,14-1.3,21.3-1.6
			c-2.9,4.6-5.1,7.8-6.9,11.1c-7.3,13.1-5.1,25,5.8,31.9c6.2,3.8,13.7,4.4,20.8,2.2h0.2c12.6-1.8,21-16.2,21.3-31
			c0.9-33.9-28.8-58.2-64.2-51.6c-2.2,0.4-4.4,0.9-6.4,1.6c-4.7,1.1-9.1,2.7-13.3,4.6c-18.4,8.2-32.1,22.4-40.1,39.2
			c-4.4,8.6-7.3,18.2-8.2,27.9c-0.4,3.8-0.7,7.5-0.4,11.3c0,11.1,2,22.4,6.2,33.2c21,55.8,77.7,76.2,126.7,71.5c1.1,0,2-0.2,3.1-0.2
			c2.7,0,5.3-0.2,8-0.2c3.3-0.2,6.9-1.1,10.2-2.2c10-1.8,19.7-4,29.7-6.4c2,0.2,4,0.4,6,0.9c-0.2-0.9-0.7-1.6-0.9-2.2
			c2.4-0.7,5.1-1.3,7.5-2c1.3,1.1,3.8,0.7,6.9-0.2c12-3.5,23.9-7.3,35.9-11.3c11.5-3.8,22.8-6.2,34.3-7.3c30.3-2.2,58.9,4,85.7,21.9
			c6.4,5.8,13.3,11.3,19.7,16.6c18.2-34.3,8.9-58.7-28.6-69.3c-7.3-2.9-15.1-4.2-23-4.7c-0.2-0.7-0.4-1.3-0.7-2
			c-3.3,0.7-6.9,1.6-10.2,2.2c-2,0.2-4,0.4-6.2,0.7c-14.8,2.2-29.2,6.6-44.3,10.6c-2.4,0.4-4.9,1.1-7.3,1.8c1.5-2,2.4-3.5,3.8-4.6
			c10.4-8.4,21-16.6,31.7-24.8c24.8-17.1,49.6-34.3,75.3-50.3c14.2-9.1,28.8-17.7,43.6-25.9c0.4-0.2,0.9-0.4,1.3-0.7
			c42.1-20.8,84.6-38.5,133.3-34.5c4.6,0.4,9.3,1.1,13.5,2.2c9.1,2.2,17.9,5.8,26.8,11.1c13.1,8.2,23.3,20.2,29.7,34.3
			c8,20.2,7.5,44.5-2.4,67.8c-0.2,0.7-0.7,1.3-0.9,2c-10,17.5-27,31-48.1,36.5c-20.4,5.3-42.1-0.4-52-13.7c0.4,0,0.7,0.2,1.1,0.2
			s1.1,0.2,1.6,0.2c3.5,0.7,7.3,0.7,10.6,0c8-1.1,14.4-4.7,18.6-10.9c6.9-10,6.4-20.8,0.2-30.3c-7.1-10.9-18.8-17.5-31.2-13.9
			c-0.9,0.2-1.6,0.4-2.4,0.7c-17.3,2.2-32.8,15.7-35,34.1c-4.2,34.3,15.1,57.8,54.7,66.4c62.2,13.5,128.2-31.4,137.3-94.6
			C1671.4,1077,1671.8,1070.8,1671.6,1064.6z"/>
		<path class="st0" d="M333,885.2c13.7,9.5,30.3,14.6,47.8,13.1c17.7-1.5,32.6-8.4,40.3-25.5c1.5-3.3,2.4-6.9,2.9-10.4
			c1.3-8-1.1-16.4-6-22.8c-1.5-2-3.1-3.5-5.1-4.9c-0.2-0.2-0.4-0.4-0.7-0.4c-0.2-0.2-0.4-0.4-0.9-0.4c-1.1-0.7-2.2-1.3-3.3-1.8
			c-10.4-4.4-19,0-27.7,14.2c-4.2,7.1-8.6,10.6-13.7,11.3c-2.2-0.2-4.4-0.9-6.9-2c-28.6-11.5-36.5-50.9-15.3-76.8
			c13.5-16.4,33.2-24.8,54.3-24.4c20.6,0.7,41.9,10,60.2,26.8c32.6,29.9,52.9,68,72.2,107c9.3,19,18.6,38.1,27.7,57.1
			c0.4-0.2,1.1-0.4,1.6-0.9c0.4,0.9,0.9,2,1.5,2.9c0-1.1-0.2-2.2-0.2-3.5c0.2,0,0.2-0.2,0.4-0.2c-0.4-2.7-0.9-5.1-1.3-7.8
			c-4.7-41.2-17.1-78.6-34.8-114.3c-18.6-37.4-42.5-70.4-80.8-89.7c-1.1-0.7-2.4-1.1-3.5-1.8c-49.2-25.2-106.3-8.6-133.5,40.7
			C286.5,811.1,299.2,862,333,885.2z"/>
		<path class="st0" d="M1231.6,1057.7c-3.3,6.4-7.3,12.6-11.7,18.8c-2,2.9-4,5.8-5.8,8.6c-6.2,5.8-12.2,11.3-18.4,17.1
			c1.3,1.6,2.4,2.9,3.8,4.4c3.5-2.7,7.1-5.3,10.6-8c0.7,0.7,1.3,1.1,2,1.8c6.2-5.5,12.2-11.5,18.4-17.1c2.2-1.8,4.7-3.5,6.9-5.1
			c28.3-19.3,44.3-47.2,52-79.3c3.8-15.5,3.5-29.5-0.2-41.4c-6.6-23.9-27.2-39.6-56-40.5c-4-0.4-8.2-0.4-12.6-0.4
			c0.2,0.2,0.4,0.4,0.7,0.9c-1.6,0.2-3.1,0.2-4.4,0.4c3.3,1.3,6.4,2.9,9.1,4.6C1260.6,965.6,1252.6,1011.2,1231.6,1057.7z"/>
		<path class="st0" d="M984.5,1144.8c-0.9,1.1-2,2.2-3.1,3.1c-0.9-1.1-2-2.2-3.1-3.1c-14.8,15.5-30.1,31.9-46.3,48.9
			c15.7,13.9,30.8,27.2,45.8,40.7c1.1,1.1,2.2,2.2,3.3,3.1l0,0l0,0c1.1-1.1,2.2-2.2,3.3-3.1c15.1-13.3,30.1-26.8,45.8-40.7
			C1014.6,1176.6,999.1,1160.5,984.5,1144.8z"/>
	</g>
</g>
</svg>
