<?xml version="1.0" encoding="utf-8"?>
<!-- Generator: Adobe Illustrator 25.4.1, SVG Export Plug-In . SVG Version: 6.00 Build 0)  -->
<svg version="1.1" id="Layer_1" xmlns="http://www.w3.org/2000/svg" xmlns:xlink="http://www.w3.org/1999/xlink" x="0px" y="0px"
	 viewBox="0 0 5851.1 2048.8" style="enable-background:new 0 0 5851.1 2048.8;" xml:space="preserve">
<style type="text/css">
	.st0{fill:#FFFFFF;}
</style>
<g>
	<g>
		<g>
			<path class="st0" d="M4217.5,718c67.7,77.9,111.1,170.3,196,228.1c-56.9,26.3-127,11.3-161.8-37.3c-32-45.1-60.8-92.7-91-139.2
				c-26.7-41.6-26.7-41.6-81.3-36c0,55.7-2.1,112,1.3,168c0.9,16.8,16.8,32.9,25.9,49.5c-50.8,0-104.9,0-165,0
				c45.1-26.6,43.2-66.9,42.9-107.3c-0.7-107.1-0.7-214.4,0.3-321.5c0.4-36.7-10.1-66.1-42.5-89.6c30.3,0,60.7-0.7,91,0.3
				c66.6,1.6,133.6,0,199.8,6.9c52.9,5.6,94.6,36,117.3,86.3c34.5,77-6,156.8-91.5,182.9C4247.2,712.5,4235,714.3,4217.5,718z
				 M4077.6,693.7c28.4,0,51.6,0.4,74.9,0c66.9-1.2,105.4-40.1,106.8-107.7c1.3-60.2-28.8-107.7-75.7-112.6
				c-35.9-3.5-72.3-0.7-105.9-0.7C4077.6,545.1,4077.6,617.1,4077.6,693.7z"/>
			<path class="st0" d="M2781.8,951c-56,0-116.5,0-181.2,0c25.4-21.5,37.3-45.6,24.8-76.7c-10.9-27-20.6-54.4-32-81.3
				c-1.6-3.5-11-5.3-17-5.3c-56.4-0.4-112.9-0.9-169.3,0.4c-7.8,0.3-18.8,9.7-21.9,17.6c-8.2,21.9-12.3,45.1-19.4,67.4
				c-8.8,28.5-5.6,53.5,23.7,76.6c-49.8,0-94.5,0-145.2,0c47.8-24.1,66.1-63.9,82.1-106.7c43.8-117.8,89.6-235,132.5-353.1
				c6-16.6,0.9-37.3,0.9-58.2c-6.2,1.2-4.4,0.4-2.6,0.4c31,0.7,68.6-9.3,91,5.1c20.6,13.2,25,52,36,79.6
				c48.5,122.1,95.1,244.7,145.8,365.9C2740.3,909.1,2764.4,929.3,2781.8,951z M2498.2,536.8c-2.2-1.3-4.4-2.5-6.6-3.8
				c-28.8,70.8-57.5,141.8-87.1,215c60.8,0,115.9,0,173.4,0C2550.6,676.4,2524.2,606.4,2498.2,536.8z"/>
			<path class="st0" d="M4663.8,433.3c38.9,0,72.6,0,107.6,0c50,130.8,100.1,260.8,150,390.9c7.9,21,14.8,42.9,26.3,62
				c14.1,23.2,32.5,44.1,48.6,65.2c-54.4,0-113.7,0-178.5,0c38.6-27.6,32.8-59.1,19.4-94c-27-69.9-25.9-70.1-102.4-69.5
				c-40.3,0.3-80.5,0-124.3,0c-2.5,55.3-60.7,106.2-2.2,163.5c-45.6,0-89.2,0-139.2,0c73.5-45.6,81.8-123,108.4-190
				c35.9-90.7,67.9-182.8,102.3-273.9C4687.2,466.8,4685.3,449.5,4663.8,433.3z M4796.6,748.4c-27.6-72.6-53.9-141.7-80.4-210.6
				c-2.5,0.3-4.7,0.4-7.1,0.7c-27.6,69.1-55.3,138.3-84.1,210C4683.6,748.4,4737.6,748.4,4796.6,748.4z"/>
			<path class="st0" d="M3542.9,434.6c25.3,0,64.2-11,87,3.4c21.5,13.5,26.3,53.5,37.6,82.3c42.5,108.1,84.8,216.6,127,325
				c15.3,39.1,30.1,79.2,69.5,105.1c-58.3,0-116.8,0-176.8,0c58.2-53.8,3.1-102.7-9.1-154c-0.9-4-11.8-7.9-17.9-8.2
				c-55.5-0.9-110.8-1.3-166.3-0.3c-7.1,0.3-17.5,8.7-20.6,15.7c-8.4,19.7-14.5,40.6-20.4,61.3c-11.5,40.7-8.4,54.2,19.7,86.1
				c-44.1,0-86.5,0-133.1,0c66.9-48.6,77.4-125,103.7-192.5c35.4-91,68.2-182.8,100.2-274.9C3548.5,469.3,3543.4,451.7,3542.9,434.6
				z M3661.8,748.5c-27.9-73-54.7-143.4-84.1-220.4c-30.3,77-58.2,147.5-86.7,220.4C3548.8,748.5,3602.9,748.5,3661.8,748.5z"/>
			<path class="st0" d="M3254.9,558.1c-9.3-9.7-19-19-27.5-29.4c-50.7-62.6-116.8-80.5-191.8-60.7c-65.5,17.5-98.6,68.2-114.8,130.8
				c-19.7,75.2-15.3,148.7,16.6,220.1c27.5,61.3,72.1,99.8,140.5,106.4c72.3,7.1,127.3-24.4,169.9-79.9
				c9.1-11.8,15.3-25.4,26.7-45.1c-5.6,39.5-9.6,71.9-15,104c-0.9,5.3-7.3,10.6-12.3,14c-94,63.8-245.5,59.5-337.5-9.6
				c-96-71.9-126.4-227.5-68.3-339.6c67.9-131.2,214.4-173.8,353.2-132.2c41,12.2,70.1,27.9,61.7,77.9c-2.2,12.8,2.6,27,4.3,40.6
				C3258.7,556,3257,556.9,3254.9,558.1z"/>
		</g>
		<g>
			<path class="st0" d="M2543.9,1351c14,4.8,26.3,8.8,38.5,13.2c63,23.2,92.7,67,87.1,128.3c-5.6,58.6-54.7,115.2-113,119.9
				c-103.2,8.2-206.6,11.3-312.1,12.6c47.6-29.2,43.8-73.9,43.6-117.3c-0.3-102.4-0.3-204.8,0.3-307.3c0.3-37.2-6.2-70.8-43.8-92
				c101.8,8.8,203.8-16.2,303.7,13.5c55.5,16.3,88.5,52.6,92.3,110.6c3.4,50.7-27.9,81-68.6,103.6
				C2563,1340.7,2553.9,1345.4,2543.9,1351z M2379.6,1370.4c0,71.4,0,143.1,0,217.2c27.2,1.3,52.5,3.1,77.6,3.8
				c68.8,1.8,111.1-38.9,113.3-108.1c2.1-67.4-37.3-109.9-105.5-112.6C2437,1369.5,2409.3,1370.4,2379.6,1370.4z M2378,1332.8
				c31.4,0,60.2,1.6,88.8-0.4c42.9-2.9,71.3-32.8,75.4-76.1c5.3-53.9-17.2-97.7-60.4-106.7c-33.2-6.6-68.2-5.7-104-8.2
				C2378,1207.9,2378,1269.6,2378,1332.8z"/>
			<path class="st0" d="M3456.5,1406.5c0,55.1-2.1,109.9,1.2,164.6c1.2,17.2,16.3,33.6,25.3,50.4c-48.9,0-101.1,0-162.8,0
				c41.4-19.7,44.7-51.1,44.7-81.8c0.4-81.3-0.9-162.7-1.6-243.8c-0.3-36.3-0.9-72.7-1.2-109c-0.3-33.4-11.9-60.4-42.9-80.5
				c23.5,0,46.9-0.4,70.5,0c66.6,1.6,133.4,0.4,199.8,5.7c77.4,6.2,134,59.1,139.6,123.7c6.2,72.6-33.6,127.4-105.4,144.9
				c-10,2.5-19.7,4.7-33.6,7.8c68.2,75.7,112.1,167.1,195.3,226.6c-58.6,25.7-125.2,10-159-38.1c-31.2-44.5-62.9-89.2-89.2-136.7
				C3518.7,1406.2,3495,1396.5,3456.5,1406.5z M3453.4,1145.4c0,75.2,0,146.6,0,219.2c17.9,0.9,32.9,1.6,47.8,2.6
				c73,6,125.2-26.6,130.3-105.5c4-63.3-32.3-111.7-88.9-115.9C3512.7,1143.3,3482.5,1145.4,3453.4,1145.4z"/>
			<path class="st0" d="M5548.2,1379.2c-31,18.4-47.3,42.9-41.9,80.8c3.1,21.3,0.7,43.2,0.7,64.8c0,56.6,0,56.9,41,95.8
				c-60,0-116.5,0-180.2,0c39.1-17.9,45-47.3,44.7-80.8c-0.7-118.3-0.7-236.7-0.3-355.3c0.3-32.9-15.4-56.4-42.9-75.8
				c60.4,0,117.4,0,174.6,0c-32.8,25-38.2,57-37.3,93.6c1.3,55.1,0.4,110.2,0.4,165.3c2.5,1.6,4.8,3.1,7.3,4.8
				c58.6-64.8,118.7-128.6,175.2-195.3c23.2-27.5,19.7-39.4-2.2-69.7c48.2,0,95.1,0,148.7,0c-91.8,56.6-155,135.6-229.2,206.2
				c89.6,94.6,139.9,218.5,244.2,301.5c-2.9,1.8-7.1,6.2-11.3,6.2c-31.9,0.9-63.9,2.6-95.8,0.3c-12.3-0.9-28.1-9.6-35.1-19.4
				c-30.7-43.3-57.7-89.2-88.3-132.5C5598.5,1438.6,5572.9,1410.2,5548.2,1379.2z"/>
			<path class="st0" d="M4884.1,1106.9c126.5,0,245.4,0,367.1,0c0,39.8,0,79.6,0,128.3c-46-115.9-141.7-87.4-225.4-90.7
				c0,63.9,0,126.1,0,192.5c62.2-7.1,126.1,20.1,178.5-42.8c0,44.7,0,79.6,0,123.3c-52.6-61.7-117.3-36.7-178.5-42.8
				c0,71.4,0,139.9,0,209.7c47.6,0,96.7,4.7,144.4-1.3c46.3-5.7,72.6-43.3,95.1-81.4c2.9-4.8,4.7-10.1,7.1-15.3
				c0.3-0.4,1.6-0.4,6-1.8c-6.5,46-12.6,90.7-19.2,136.9c-120.2,0-238.9,0-361.8,0c35.1-21.3,38.5-53.5,38.2-88.3
				c-0.7-112.9-0.3-225.4-0.7-338.3C4934.9,1160.2,4926.1,1128.7,4884.1,1106.9z"/>
			<path class="st0" d="M2861.8,1460.9c-2.5,53-57.5,104-2.1,161c-44.5,0-87,0-136.1,0c49.8-31.4,67.4-77.4,84.5-124.2
				c35.6-97.7,71.9-195.1,107.7-292.7c4.8-13.1,9.1-26.6,13.2-40.1c6.6-21.9,7.5-42.8-18.1-58.2c38.2,0,72.7,0,109.5,0
				c32,83.6,64.2,167.5,96.2,251.3c23.1,60.4,45.4,121.1,69.7,181c12.3,30.6,26.3,60.8,58.6,80.4c-58.8,0-117.4,0-176.8,0
				c32.8-25,36.9-39.4,22.8-79.9c-9.3-26.3-12.8-61.6-31.6-75.7c-17.6-13.2-52.5-4.4-79.3-4.7c-35.6-0.3-71.4,0.3-107.1,0.4
				C2870.2,1459.7,2867.4,1460.2,2861.8,1460.9z M2967.4,1203.7c-2.2-0.3-4.4-0.3-6.6-0.4c-26.3,70.8-52.6,141.4-80.1,215.4
				c58.2,0,110.2,0,165.8,0C3019.4,1345.4,2993.2,1274.6,2967.4,1203.7z"/>
			<path class="st0" d="M4193.9,1621.5c39.5-31.2,42.8-43.6,26.6-85.4c-5.7-14.8-14.4-29.4-16.3-44.7c-3.8-29.8-21.3-34.2-46.7-33.6
				c-46.4,1.6-93.2-0.3-139.9,1.6c-8.2,0.3-20.1,8.7-23.2,16.2c-8.4,19.7-12.6,41.1-19.2,61.7c-10.4,31.9-7.5,60.2,25.7,84.5
				c-48.9,0-92.3,0-142.7,0c73.9-46,83.2-122.5,109-189.1c33.8-87.4,63-176.3,94.9-264.3c8.2-22.8,10.4-43.8-14-60.7
				c35.9,0,69.2,0,104.2,0c33.6,87.9,67.3,175.2,100.9,262.6c20.9,54.2,39.4,109.3,63.3,162.2c14.4,32,36.9,60.7,54.8,89.6
				C4317.7,1621.5,4258.7,1621.5,4193.9,1621.5z M4177,1417.2c-27-71-52.5-138.7-78-206.2c-2.5,0.4-4.8,1.2-7.3,1.6
				c-25.4,67.9-50.8,135.6-76.7,204.7C4070.2,1417.2,4121.9,1417.2,4177,1417.2z"/>
			<path class="st0" d="M4463.4,1622.1c47.6-29.8,35.6-76.6,36-116.8c1.2-99.3-1.3-198.4-1.2-297.7c0-38.1-3.1-73.2-47.6-98.6
				c63.8,0,119,0,181.9,0c-59.5,42.3-44.2,100.7-46,154c-1.8,53.5-0.4,107.1-0.4,160.6c0,53.3,0,106.7,0,161.8
				c90.2,2.2,184.1,20.4,228.1-94.2c1.8,2.5,3.5,4.8,5.3,7.3c-7.9,41-15.9,81.8-24.4,123.9
				C4683.6,1622.1,4573.4,1622.1,4463.4,1622.1z"/>
		</g>
	</g>
	<g>
		<path class="st0" d="M743.3,1353.5c57.5,55.3,113.7,111.6,170.3,167.6c1.2,0.9,2.1,2.1,2.9,3.3c6,7.2,11.7,14.4,17.3,21.8l0,0l0,0
			c5.7-7.5,11.4-14.7,17.3-21.8c0.9-1.2,2.1-2.1,2.9-3.3c56.5-55.9,112.8-112.2,170.3-167.6c13.2-12.2,26-24.5,38.6-37.1
			c52-52,90.1-111.6,89.7-189.1c-0.4-72.7-40-132.2-106.6-159.4c-8.1-3.3-16.5-5.7-24.8-7.5c-41-10.5-82.3-2.7-121.5,23.9
			c-1.2,0.9-2.1,1.5-3.3,2.4c-10.7,7.2-21,15.5-30.3,25.4c-0.6,0.6-1.2,1.2-1.5,1.8c-10.5,9.9-20.6,20.4-31.1,30.3
			c-10.5-9.9-20.6-20.4-31.1-30.3c-0.6-0.6-1.2-1.2-1.5-1.8c-9.3-9.5-19.4-18.3-30.3-25.4c-1.2-0.9-2.1-1.5-3.3-2.4
			c-39.2-26.4-80.5-34.1-121.5-23.9c-8.4,1.8-16.7,4.2-24.8,7.5c-66.4,27-106.2,86.4-106.6,159.4c-0.4,77.2,37.4,137.1,89.7,189.1
			C717.1,1328.9,730.1,1341.3,743.3,1353.5z M784.8,1004.3c46.6,1.8,77.8,30.3,102,66.2c17.3,25.8,31.4,53.8,46,79
			c0.4-0.6,0.6-1.2,1.2-1.8c0.4,0.6,0.6,1.2,1.2,1.8c14.4-25.1,28.7-53.2,46-79c24.3-35.9,55.3-64.3,102-66.2
			c4.5-0.4,8.7,0,13.2,0.4c12.6,1.5,25.1,4.8,38,10.5c48.7,21.5,76.9,78.4,68.8,136.7c-7.5,52-36.5,91.8-71.8,127.4
			c-33.2,33.6-68.5,64.9-102.9,97.3c-31.4,29.3-63.5,58.6-94,87c-30.9-28.4-62.5-57.7-94-87c-34.4-32.3-69.7-63.7-102.9-97.3
			c-35.3-35.6-64.3-75.4-71.8-127.4c-8.4-58.3,20-115.2,68.8-136.7c12.8-5.7,25.4-9.3,38-10.5C776.1,1004.3,780.3,1004,784.8,1004.3
			z"/>
		<path class="st0" d="M1347,971.6c-0.4-2.1-0.4-4.2-0.6-6.2c-0.6-13.8-1.8-27.2-4.2-40.7c-9.5-61.3-37.7-114.6-80.5-161.6
			c-45.8-50.3-103.9-83.5-159.2-120.6c-20.6-13.8-41.9-26.6-63.1-39.8c-14.4-9.5-29-18.8-43.3-28.7c-20-13.4-38-30.3-56.9-46
			c-1.8-1.8-3.3-3.3-5.1-5.1c-0.4,0-0.4,0.4-0.6,0.4c-0.4,0-0.4-0.4-0.6-0.4c-1.5,1.8-3.3,3.3-5.1,5.1c-18.8,15.9-36.5,32.6-56.9,46
			c-14.4,9.5-28.7,19.2-43.3,28.7c-21,13.2-42.5,26-63.1,39.8c-55.3,37.1-113.7,70.3-159.2,120.6c-42.7,47-70.9,100.2-80.5,161.6
			c-2.4,13.4-3.5,27-4.2,40.7c-0.4,2.1-0.6,4.2-0.6,6.2c-0.4,4.8-0.6,9.9-0.9,16.5c0.6,0,0.9,0,1.5,0c0,0,0,0,0,0.4
			c17.7,0,33.2,0,49.3,0c-1.8-27.2,0.4-53,6.2-77.5c2.7-10.5,6-20.4,9.5-30.3c8.9-22.5,21.5-43.7,37.4-64.1
			c29.9-38,67.4-67.9,107.7-94.2c66.4-43.1,133.2-85.6,201.9-129.5c68.8,44.3,135.5,86.8,201.9,129.5c40.4,26,77.5,55.9,107.7,94.2
			c15.9,20.4,28.4,41.6,37.4,64.1c3.9,9.5,6.8,19.8,9.5,30.3c6,24.5,8.1,50.3,6.2,77.5c16.5,0,32,0,49.3,0c0,0,0,0,0-0.4
			c0.6,0,0.9,0,1.5,0C1347.6,981.5,1347.3,976.8,1347,971.6z"/>
		<path class="st0" d="M1500.5,1450.1c0,1.5-0.4,2.9-0.4,4.8c0.6-1.2,1.2-2.7,2.1-3.9c0.6,0.4,1.5,0.6,2.1,1.2
			c12.6-25.8,24.8-51.8,37.4-77.2c26-52.6,53.6-104.1,97.5-144.5c24.8-22.7,53.8-35.3,81.4-36.1c28.1-0.4,55.1,11.1,73.4,33
			c28.7,34.7,17.9,88.3-20.6,103.9c-3.3,1.2-6.2,2.1-9.3,2.7c-6.8-0.9-12.8-5.7-18.6-15.3c-11.7-19.2-23.3-25.1-37.4-19.2
			c-1.5,0.6-2.9,1.5-4.5,2.4c-0.4,0.4-0.6,0.6-1.2,0.6c-0.4,0.4-0.6,0.6-0.9,0.6c-2.7,1.8-4.8,4.2-6.8,6.6
			c-6.6,8.4-9.5,19.8-8.1,30.9c0.6,4.8,1.8,9.5,3.9,14c10.5,23.1,30.5,32.3,54.4,34.4c23.7,2.1,46.4-4.5,64.6-17.7
			c45.8-31.4,62.9-100.2,33-154.4c-36.9-66.8-114-89.1-180.4-55.1c-1.5,0.6-3.3,1.5-4.8,2.4c-51.8,26-84.1,70.7-109.2,121.2
			c-23.9,48.2-40.7,98.8-47,154.4c-0.6,3.5-1.2,6.8-1.8,10.5C1500.2,1449.8,1500.2,1449.8,1500.5,1450.1z"/>
		<path class="st0" d="M202.9,960.9c16.7,4.8,30.9,12.2,42.2,23.1c0.4,0.6,0.9,0.9,1.2,1.5c11.7,16.5,20.6,35.6,27.6,55.1
			c8.7,24.8,19.4,47.2,38,66.2c10.7,10.7,20,23.1,31.1,36.5c0.4,0.6,0.6,0.9,0.9,1.5c0,0,0,0,0-0.4c0.6,0.9,1.2,1.5,2.1,2.4
			c0.9-4.2,1.8-8.4,2.7-12.6c10.1-25.4,12-55.1,6.6-82.9c-5.4-33.2-21.2-62.5-44.9-82.3c-5.4-4.5-11.1-8.7-17.1-12
			c-10.1-5.7-20.6-9.3-31.1-11.1c-23.1-4.5-44.9-0.6-65.8,12c-0.4,0.4-0.9,0.4-1.2,0.6l0,0c-0.6,0.4-1.5,0.9-2.1,1.2
			C196.5,960.3,199.6,960.6,202.9,960.9z"/>
		<path class="st0" d="M1519.4,1134.1c0.9,4.2,1.8,8.4,2.7,12.6c0.6-0.9,1.2-1.5,2.1-2.4c0,0,0,0,0,0.4c0.4-0.6,0.6-0.9,0.9-1.5
			c11.1-13.4,20.6-25.8,31.1-36.5c18.6-18.8,29.3-41.6,38-66.2c6.6-19.2,15.5-38.3,27.6-55.1c0.4-0.6,0.9-0.9,1.2-1.5
			c11.4-10.7,25.4-18.3,42.2-23.1c2.9-0.4,6.2-0.6,9.5-0.6c-0.6-0.6-1.5-0.9-2.1-1.2l0,0c-0.4-0.4-0.9-0.4-1.2-0.6
			c-21-12.6-42.7-16.7-65.8-12c-10.5,1.8-20.6,5.4-31.1,11.1c-6,3.3-11.7,7.5-17.1,12c-23.7,19.4-39.4,48.7-44.9,82.3
			C1507.3,1079.4,1509.1,1108.7,1519.4,1134.1z"/>
		<path class="st0" d="M517.9,1525c10.5,43.1,32.3,81.1,70.3,107.2c2.9,2.4,6.2,4.8,9.3,6.8c8.4,7.8,16.5,15.5,24.8,23.1
			c0.9-0.9,1.8-1.5,2.7-2.4c4.8,3.5,9.5,7.2,14.4,10.7c1.8-2.1,3.3-3.9,5.1-6c-8.4-7.8-16.5-15.3-24.8-23.1
			c-2.4-3.9-5.1-8.1-7.8-11.7c-6-8.4-11.1-16.7-15.9-25.4c-28.4-62.9-39.2-124.5,8.1-182.2c3.5-2.4,7.5-4.5,12.2-6.2
			c-2.1-0.4-4.2-0.6-6-0.6c0.4-0.4,0.6-0.6,0.9-1.2c-6-0.4-11.7,0-17.1,0.6c-38.6,1.2-66.8,22.5-75.7,54.8
			C513.2,1485.2,512.8,1504,517.9,1525z"/>
		<path class="st0" d="M1866.4,1613.2c0-0.6,0-0.9,0-1.5c0-1.8,0-3.5-0.4-5.7c0-0.4,0-0.9,0-1.2c-5.7-89.1-86.8-146.6-154.1-150.3
			c-1.5,0-3.3,0-4.8-0.4c-16.7-1.5-34.7-0.9-53,1.8c-67.9,9.5-126.8,39.2-181.6,78.7c-18.8,13.8-36.9,28.7-55.3,43.1
			c0.6-6,2.1-11.1,3.9-15.9c0.9-1.8,1.5-3.9,2.4-5.7c0.6-1.2,1.2-2.7,1.8-3.9c24.8-51.5,36.5-105.6,36.5-162.5c0-0.4,0-0.4,0-0.6
			c0.9-20,1.2-40,1.2-60.2c0.4-117.3,0.4-234.3,0.6-351.6c0.4-102.9-27-190.6-79.2-264.5c-24.3-35-53.6-64.9-85.8-91.3
			c-0.9-0.9-2.1-1.8-3.3-2.7c-0.6-0.6-1.2-1.2-2.1-1.5c-1.5-1.2-2.9-2.4-4.5-3.5c-0.6-0.4-0.9-0.9-1.5-1.2c-0.9-0.6-1.8-1.5-2.9-2.1
			c-21-16.5-43.1-31.4-65.8-46c-61.9-39.8-126.6-75.4-187.3-117c-0.6-0.4-0.9-0.6-1.5-1.2c-8.4-6.2-16.5-13.2-24.3-20
			c-16.5-15.5-31.4-33.2-46-49.9c-2.9-3.5-5.4-7.2-6.8-11.1c-3.3-13.4,1.5-27.6,13.4-44.9c3.5-5.4,6-10.1,6.8-15
			c0.6-1.2,1.5-2.1,2.1-2.9c-0.6-1.2-0.9-2.4-1.5-3.5c-0.4-6-2.4-12-6-18.8c-13.4-26-23.1-53.8-33.2-78.4c-0.4,0.6-0.4,1.2-0.6,1.5
			c-0.4-0.6-0.4-1.2-0.6-1.5c-10.1,24.5-19.8,52.6-33.2,78.4c-3.5,6.8-5.7,13.2-6,18.8c-0.6,1.2-0.9,2.4-1.5,3.5
			c0.6,0.9,1.2,2.1,2.1,2.9c0.9,4.8,3.3,9.5,6.8,15c12,17.3,16.7,31.4,13.4,44.9c-1.5,3.9-3.9,7.5-6.8,11.1
			c-14.7,17.1-29.7,34.7-46,49.9c-7.8,6.8-15.9,13.4-24.3,20c-0.6,0.4-0.9,0.6-1.5,1.2c-60.8,41.3-125.4,77.2-187.3,117
			c-22.7,14.7-44.9,29.7-65.8,46c-0.9,0.6-1.8,1.5-2.9,2.1c-0.6,0.4-0.9,0.9-1.5,1.2c-1.5,1.2-2.9,2.4-4.5,3.5
			c-0.6,0.6-1.2,1.2-2.1,1.5c-1.2,0.9-2.1,1.8-3.3,2.7c-32.3,26.6-61.6,56.3-85.8,91.3c-52.4,73.9-79.6,161.6-79.2,264.5
			c0.6,117.3,0.4,234.3,0.6,351.6c0,20,0.4,40,1.2,60.2c0,0.4,0,0.4,0,0.6c0,56.9,11.7,111,36.5,162.5c0.6,1.2,1.2,2.7,1.8,3.9
			c0.9,1.8,1.5,3.9,2.4,5.7c1.8,4.8,3.3,10.1,3.9,15.9c-18.3-14.4-36.1-29.3-55.3-43.1c-54.8-39.4-113.7-69.1-181.6-78.7
			c-18.3-2.7-36.1-3.3-53-1.8c-1.5,0-3.3,0-4.8,0.4c-67.6,3.9-148.4,61-154.1,150.3c0,0.4,0,0.9,0,1.2c0,1.8-0.4,3.5-0.4,5.7
			c0,0.6,0,0.9,0,1.5c0,8.1,0.4,16.7,1.8,25.4c12,85.3,101.1,146,185.5,127.8c53.6-11.7,79.8-43.3,73.9-89.7
			c-2.9-24.8-23.9-43.1-47.2-46c-1.2-0.4-2.1-0.6-3.3-0.9c-16.7-4.8-32.6,4.2-42.2,18.8c-8.4,12.8-8.9,27.6,0.4,41
			c5.7,8.4,14.4,13.2,25.1,14.7c4.5,0.9,9.5,0.9,14.4,0c0.6,0,1.5-0.4,2.1-0.4s0.9,0,1.5-0.4c-13.4,18.3-42.7,25.8-70.3,18.6
			c-28.4-7.5-51.5-25.8-64.9-49.3c-0.4-0.9-0.9-1.8-1.2-2.7c-13.8-31.4-14-64.3-3.3-91.6c8.4-19.4,22.5-35.3,40-46.4
			c11.7-7.2,23.9-12,36.1-15c6-1.5,12-2.4,18.3-2.9c65.8-5.4,123.5,18.6,180.2,46.6c0.6,0.4,1.2,0.6,1.8,0.9
			c20,10.7,39.4,22.7,59,35c34.4,21.8,67.9,44.9,101.7,67.9c14.4,11.1,28.7,22.1,42.7,33.6c1.8,1.5,2.9,3.5,5.1,6.2
			c-3.3-0.9-6.6-1.5-9.9-2.4c-20.6-5.4-40-11.4-59.8-14.4c-2.7-0.4-5.4-0.6-8.4-0.9c-4.5-0.9-9.3-2.1-13.8-2.9
			c-0.4,0.9-0.6,1.8-0.9,2.7c-10.7,0.4-21.2,2.4-31.1,6.2c-50.5,14.4-63.1,47-38.6,93.6c8.7-7.5,17.7-15,26.6-22.5
			c36.1-24.3,74.8-32.6,115.8-29.7c15.5,1.5,30.9,4.8,46.4,9.9c16.1,5.1,32.3,10.1,48.5,15.3c4.2,1.2,7.5,1.5,9.3,0.4
			c3.3,0.9,6.8,1.8,10.1,2.7c-0.4,0.9-0.9,1.8-1.2,2.9c2.9-0.4,5.7-0.9,8.1-1.2c13.2,3.3,26.6,6.2,40,8.7c4.5,1.5,8.9,2.7,13.8,2.9
			c3.5,0.4,7.2,0.4,10.7,0.4c1.5,0.4,2.7,0.4,4.2,0.4c66.4,6.2,142.7-21,171.1-96.7c5.7-14.7,8.4-29.9,8.4-44.9
			c0-5.1-0.4-10.1-0.6-15.3c-1.5-13.2-5.4-26-11.1-37.7c-11.1-22.7-29.3-41.6-54.2-53c-5.7-2.7-12-4.8-17.9-6.2
			c-2.9-0.6-5.7-1.5-8.7-2.1c-47.9-8.9-88,23.9-86.8,69.7c0.6,20,11.7,39.4,28.7,41.9h0.4c9.3,2.9,19.8,2.4,28.1-2.9
			c14.7-9.3,17.7-25.4,7.8-43.1c-2.4-4.5-5.4-8.7-9.3-15c9.9,0,19.8,0.4,28.7,2.1c9.5,2.1,17.9,6.2,25.8,13.2
			c28.1,25.8,29.9,70.9,3.3,102c-16.7,19.8-36.5,31.7-57.7,37.7c-10.1,2.4-21,3.5-32,3.9c-70.3,1.5-128.1-29.9-181.3-73
			c-15.3-12.2-28.7-25.1-40.4-38.6c-29.3-35.3-50.9-76-63.7-122.9c-0.9-2.9-1.5-5.7-2.1-8.7c-5.7-26.4-8.7-54.2-8.4-83.1
			c0.4-129.3,0.4-258.8,0-388.1c0.4-29,0.9-58.3,1.2-87.4c6.2-82,35.3-152.3,83.7-211.2c40-48.2,90.7-85,144.5-118.5
			c86.4-53.8,182.5-94.2,249.9-177.1c67.4,82.9,163.3,123.3,249.9,177.1c53.8,33.6,104.4,70.3,144.5,118.5
			c48.5,59.2,77.2,129.3,83.7,211.2c0.6,29,0.9,58.3,1.2,87.4c-0.4,129.3,0,258.8,0,388.1c0,29-2.7,56.9-8.4,83.1
			c-0.6,2.9-1.5,5.7-2.1,8.7c-12.8,47-34.4,87.6-63.7,122.9c-12,13.4-25.4,26.6-40.4,38.6c-53.2,43.1-111,74.5-181.3,73
			c-11.1-0.4-21.8-1.5-32-3.9c-21.2-6-41-17.9-57.7-37.7c-27-31.1-24.8-76.5,3.3-102c7.8-7.2,16.5-11.1,25.8-13.2
			c8.9-1.5,18.8-1.8,28.7-2.1c-3.9,6.2-6.8,10.5-9.3,15c-9.9,17.7-6.8,33.8,7.8,43.1c8.4,5.1,18.6,6,28.1,2.9h0.4
			c17.1-2.4,28.4-21.8,28.7-41.9c1.2-45.8-38.9-78.7-86.8-69.7c-2.9,0.6-6,1.2-8.7,2.1c-6.2,1.5-12.2,3.5-17.9,6.2
			c-24.8,11.1-43.3,30.3-54.2,53c-6,11.7-9.9,24.5-11.1,37.7c-0.6,5.1-0.9,10.1-0.6,15.3c0,15,2.7,30.3,8.4,44.9
			c28.4,75.4,105,102.9,171.1,96.7c1.5,0,2.7-0.4,4.2-0.4c3.5,0,7.2-0.4,10.7-0.4c4.5-0.4,9.3-1.5,13.8-2.9
			c13.4-2.4,26.6-5.4,40-8.7c2.7,0.4,5.4,0.6,8.1,1.2c-0.4-1.2-0.9-2.1-1.2-2.9c3.3-0.9,6.8-1.8,10.1-2.7c1.8,1.5,5.1,0.9,9.3-0.4
			c16.1-4.8,32.3-9.9,48.5-15.3c15.5-5.1,30.9-8.4,46.4-9.9c41-2.9,79.6,5.4,115.8,29.7c8.7,7.8,17.9,15.3,26.6,22.5
			c24.5-46.4,12-79.2-38.6-93.6c-9.9-3.9-20.4-5.7-31.1-6.2c-0.4-0.9-0.6-1.8-0.9-2.7c-4.5,0.9-9.3,2.1-13.8,2.9
			c-2.7,0.4-5.4,0.6-8.4,0.9c-20,2.9-39.4,8.9-59.8,14.4c-3.3,0.6-6.6,1.5-9.9,2.4c2.1-2.7,3.3-4.8,5.1-6.2
			c14-11.4,28.4-22.5,42.7-33.6c33.6-23.1,67-46.4,101.7-67.9c19.2-12.2,38.9-23.9,59-35c0.6-0.4,1.2-0.6,1.8-0.9
			c56.9-28.1,114.3-52,180.2-46.6c6.2,0.6,12.6,1.5,18.3,2.9c12.2,2.9,24.3,7.8,36.1,15c17.7,11.1,31.4,27.2,40,46.4
			c10.7,27.2,10.1,60.2-3.3,91.6c-0.4,0.9-0.9,1.8-1.2,2.7c-13.4,23.7-36.5,41.9-64.9,49.3c-27.6,7.2-56.9-0.6-70.3-18.6
			c0.6,0,0.9,0.4,1.5,0.4s1.5,0.4,2.1,0.4c4.8,0.9,9.9,0.9,14.4,0c10.7-1.5,19.4-6.2,25.1-14.7c9.3-13.4,8.7-28.1,0.4-41
			c-9.5-14.7-25.4-23.7-42.2-18.8c-1.2,0.4-2.1,0.6-3.3,0.9c-23.3,2.9-44.3,21.2-47.2,46c-5.7,46.4,20.4,78.1,73.9,89.7
			c84.1,18.3,173.2-42.5,185.5-127.8C1866.1,1630,1866.7,1621.5,1866.4,1613.2z"/>
		<path class="st0" d="M57.7,1370.8c18.6,12.8,41,19.8,64.6,17.7c23.9-2.1,44-11.4,54.4-34.4c2.1-4.5,3.3-9.3,3.9-14
			c1.8-10.7-1.5-22.1-8.1-30.9c-2.1-2.7-4.2-4.8-6.8-6.6c-0.4-0.4-0.6-0.6-0.9-0.6c-0.4-0.4-0.6-0.6-1.2-0.6
			c-1.5-0.9-2.9-1.8-4.5-2.4c-14-6-25.8,0-37.4,19.2c-5.7,9.5-11.7,14.4-18.6,15.3c-2.9-0.4-6-1.2-9.3-2.7
			c-38.6-15.5-49.3-68.8-20.6-103.9c18.3-22.1,44.9-33.6,73.4-33c27.8,0.9,56.5,13.4,81.4,36.1c44,40.4,71.5,91.8,97.5,144.5
			c12.6,25.8,25.1,51.5,37.4,77.2c0.6-0.4,1.5-0.6,2.1-1.2c0.6,1.2,1.2,2.7,2.1,3.9c0-1.5-0.4-2.9-0.4-4.8c0.4,0,0.4-0.4,0.6-0.4
			c-0.6-3.5-1.2-6.8-1.8-10.5c-6.2-55.7-23.1-106.2-47-154.4c-25.1-50.5-57.5-95.1-109.2-121.2c-1.5-0.9-3.3-1.5-4.8-2.4
			c-66.4-34.1-143.7-11.7-180.4,55.1C-5.1,1270.6,11.9,1339.4,57.7,1370.8z"/>
		<path class="st0" d="M1271.8,1603.9c-4.5,8.7-9.9,17.1-15.9,25.4c-2.7,3.9-5.4,7.8-7.8,11.7c-8.4,7.8-16.5,15.3-24.8,23.1
			c1.8,2.1,3.3,3.9,5.1,6c4.8-3.5,9.5-7.2,14.4-10.7c0.9,0.9,1.8,1.5,2.7,2.4c8.4-7.5,16.5-15.5,24.8-23.1c2.9-2.4,6.2-4.8,9.3-6.8
			c38.3-26,59.8-63.7,70.3-107.2c5.1-21,4.8-39.8-0.4-55.9c-8.9-32.3-36.9-53.6-75.7-54.8c-5.4-0.6-11.1-0.6-17.1-0.6
			c0.4,0.4,0.6,0.6,0.9,1.2c-2.1,0.4-4.2,0.4-6,0.6c4.5,1.8,8.7,3.9,12.2,6.2C1311.1,1479.4,1300.3,1541.1,1271.8,1603.9z"/>
		<path class="st0" d="M938,1721.5c-1.2,1.5-2.7,2.9-4.2,4.2c-1.2-1.5-2.7-2.9-4.2-4.2c-20,21-40.7,43.1-62.5,66.2
			c21.2,18.8,41.6,36.9,61.9,55.1c1.5,1.5,2.9,2.9,4.5,4.2l0,0l0,0c1.5-1.5,2.9-2.9,4.5-4.2c20.4-17.9,40.7-36.1,61.9-55.1
			C978.6,1764.6,957.7,1742.7,938,1721.5z"/>
	</g>
</g>
</svg>
