<?xml version="1.0" encoding="utf-8"?>
<!-- Generator: Adobe Illustrator 25.4.1, SVG Export Plug-In . SVG Version: 6.00 Build 0)  -->
<svg version="1.1" id="Layer_1" xmlns="http://www.w3.org/2000/svg" xmlns:xlink="http://www.w3.org/1999/xlink" x="0px" y="0px"
	 viewBox="0 0 4618.5 1098.3" style="enable-background:new 0 0 4618.5 1098.3;" xml:space="preserve">
<style type="text/css">
	.st0{fill:#FFFFFF;}
</style>
<g>
	<g>
		<g>
			<path class="st0" d="M3132,291.4c58,66.7,95.1,145.9,167.9,195.4c-48.7,22.6-108.8,9.7-138.5-32c-27.5-38.7-52.1-79.4-77.9-119.2
				c-22.9-35.6-22.9-35.6-69.6-30.9c0,47.8-1.7,95.9,1.1,143.9c0.8,14.4,14.4,28.2,22.2,42.5c-43.6,0-89.8,0-141.4,0
				c38.7-22.7,37-57.2,36.8-91.9c-0.6-91.7-0.6-183.7,0.2-275.4c0.4-31.5-8.7-56.7-36.4-76.8c26,0,51.9-0.6,77.9,0.2
				c57,1.3,114.5,0,171.1,5.9c45.3,4.7,81.1,30.9,100.5,73.9c29.6,66-5.1,134.4-78.5,156.7C3157.4,286.6,3147,288.1,3132,291.4z
				 M3012.2,270.5c24.3,0,44.2,0.4,64.3,0c57.2-0.9,90.2-34.3,91.5-92.3c1.1-51.6-24.6-92.3-64.8-96.5c-30.7-3-62-0.6-90.8-0.6
				C3012.2,143.3,3012.2,204.9,3012.2,270.5z"/>
			<path class="st0" d="M1901.9,490.9c-48,0-99.9,0-155.2,0c21.8-18.4,32-39,21.2-65.8c-9.3-23.1-17.6-46.6-27.5-69.6
				c-1.3-3-9.5-4.5-14.6-4.5c-48.3-0.4-96.7-0.8-145,0.4c-6.6,0.2-16.1,8.3-18.8,15.2c-7,18.8-10.6,38.7-16.7,57.8
				c-7.6,24.4-4.7,45.9,20.3,65.6c-42.6,0-80.9,0-124.3,0c40.9-20.7,56.7-54.8,70.3-91.4c37.5-101,76.8-201.3,113.5-302.5
				c5.1-14.2,0.8-32,0.8-49.8c-5.3,0.9-3.8,0.4-2.3,0.4c26.5,0.6,58.8-8,77.9,4.4c17.6,11.4,21.4,44.5,30.9,68.2
				c41.5,104.6,81.5,209.6,124.9,313.5C1866.5,455.1,1887.1,472.4,1901.9,490.9z M1658.9,136.1c-1.9-1.1-3.8-2.1-5.7-3.2
				c-24.6,60.7-49.3,121.5-74.7,184.2c52.1,0,99.3,0,148.6,0C1703.9,255.7,1681.3,195.8,1658.9,136.1z"/>
			<path class="st0" d="M3514.3,47.4c33.4,0,62.2,0,92.1,0c42.8,112,85.7,223.5,128.5,334.9c6.8,18,12.7,36.8,22.6,53.1
				c12.1,19.9,27.9,37.7,41.7,55.9c-46.6,0-97.4,0-153,0c33.2-23.7,28.1-50.6,16.7-80.6c-23.1-59.9-22.2-60.1-87.8-59.5
				c-34.5,0.2-69,0-106.5,0c-2.1,47.4-51.9,91-1.9,140.1c-39,0-76.4,0-119.2,0c62.9-39,70.1-105.4,92.9-162.8
				c30.7-77.7,58.2-156.6,87.6-234.6C3534.4,76.2,3532.7,61.3,3514.3,47.4z M3628.2,317.3c-23.7-62.2-46.2-121.3-68.8-180.4
				c-2.1,0.2-4,0.4-6.1,0.6c-23.7,59.1-47.4,118.5-72,179.9C3531.4,317.3,3577.6,317.3,3628.2,317.3z"/>
			<path class="st0" d="M2554.1,48.6c21.6,0,55-9.5,74.5,2.8c18.4,11.6,22.6,45.9,32.2,70.5c36.4,92.7,72.6,185.6,108.8,278.4
				c13.1,33.5,25.8,67.9,59.5,90c-50,0-100.1,0-151.4,0c49.8-46.1,2.7-87.9-7.8-131.9c-0.8-3.4-10-6.8-15.4-7
				c-47.6-0.8-95-1.1-142.5-0.2c-6.1,0.2-15,7.4-17.6,13.5c-7.2,16.9-12.5,34.7-17.4,52.5c-9.9,34.9-7.2,46.4,16.9,73.7
				c-37.7,0-74.1,0-114.1,0c57.2-41.7,66.3-107.1,88.9-164.9c30.3-77.9,58.4-156.6,85.9-235.6C2558.9,78.3,2554.5,63.2,2554.1,48.6z
				 M2655.9,317.5c-23.9-62.5-46.8-122.8-72-188.8c-26,66-49.8,126.4-74.3,188.8C2559,317.5,2605.5,317.5,2655.9,317.5z"/>
			<path class="st0" d="M2307.3,154.3c-8-8.3-16.3-16.3-23.5-25.2c-43.4-53.6-100.1-69-164.3-51.9c-56.1,15-84.5,58.4-98.4,112
				c-16.9,64.4-13.1,127.4,14.2,188.6c23.5,52.5,61.8,85.5,120.4,91.2c62,6.1,109-20.8,145.6-68.4c7.8-10,13.1-21.8,22.9-38.7
				c-4.7,33.9-8.1,61.6-12.9,89.1c-0.8,4.5-6.3,9.1-10.6,11.9c-80.6,54.6-210.4,51-289.2-8.1c-82.3-61.6-108.2-194.8-58.6-290.9
				c58.2-112.4,183.7-149,302.7-113.3c35.1,10.4,60.1,23.9,52.9,66.7c-1.9,11,2.3,23.1,3.6,34.7
				C2310.6,152.6,2309,153.4,2307.3,154.3z"/>
		</g>
		<g>
			<path class="st0" d="M1698.2,833.6c11.9,4.2,22.6,7.6,33,11.4c54,19.9,79.4,57.4,74.7,109.9c-4.7,50.2-46.8,98.7-96.9,102.7
				c-88.3,7-177,9.7-267.4,10.8c40.7-25,37.5-63.3,37.3-100.5c-0.2-87.8-0.2-175.5,0.2-263.3c0.2-31.8-5.3-60.7-37.5-78.8
				c87.2,7.6,174.6-13.8,260.2,11.6c47.6,14,75.8,45.1,79,94.8c2.8,43.4-23.9,69.4-58.8,88.7
				C1714.5,824.9,1706.7,828.9,1698.2,833.6z M1557.4,850.3c0,61.2,0,122.6,0,186.1c23.3,1.1,44.9,2.7,66.5,3.2
				c58.9,1.5,95.1-33.4,97-92.7c1.7-57.8-32-94.2-90.4-96.5C1606.6,849.5,1582.8,850.3,1557.4,850.3z M1556,818.1
				c26.9,0,51.6,1.3,76-0.4c36.8-2.5,61-28.1,64.6-65.2c4.5-46.2-14.8-83.8-51.7-91.4c-28.4-5.7-58.4-4.9-89.1-7
				C1556,711,1556,763.9,1556,818.1z"/>
			<path class="st0" d="M2480,881.2c0,47.2-1.7,94.2,0.9,141c0.9,14.8,14,28.8,21.6,43.2c-41.9,0-86.6,0-139.5,0
				c35.4-16.9,38.3-43.8,38.3-70.1c0.4-69.6-0.8-139.3-1.3-208.9c-0.2-31.1-0.8-62.4-0.9-93.4c-0.2-28.6-10.2-51.7-36.8-69
				c20.1,0,40.2-0.4,60.5,0c57,1.3,114.3,0.4,171.1,4.9c66.3,5.3,114.9,50.6,119.6,105.9c5.3,62.2-28.8,109.2-90.2,124.1
				c-8.5,2.1-16.9,4-28.8,6.6c58.4,64.8,96.1,143.1,167.4,194.1c-50.2,22-107.3,8.5-136.3-32.6c-26.7-38.1-53.8-76.4-76.4-117.1
				C2533.3,881,2513,872.7,2480,881.2z M2477.4,657.5c0,64.4,0,125.7,0,187.8c15.4,0.8,28.2,1.3,40.9,2.3
				c62.5,5.1,107.3-22.7,111.6-90.4c3.4-54.2-27.7-95.7-76.2-99.3C2528.2,655.8,2502.4,657.5,2477.4,657.5z"/>
			<path class="st0" d="M4272.1,857.9c-26.5,15.7-40.6,36.8-35.8,69.2c2.7,18.2,0.6,37,0.6,55.5c0,48.5,0,48.7,35.1,82.1
				c-51.4,0-99.9,0-154.3,0c33.5-15.4,38.5-40.6,38.3-69.2c-0.6-101.4-0.6-202.8-0.2-304.4c0.2-28.2-13.3-48.3-36.8-65
				c51.7,0,100.6,0,149.5,0c-28.1,21.4-32.8,48.9-32,80.2c1.1,47.2,0.4,94.4,0.4,141.6c2.1,1.3,4.2,2.7,6.3,4.2
				c50.2-55.5,101.8-110.1,150.1-167.4c19.9-23.5,16.9-33.7-1.9-59.7c41.3,0,81.5,0,127.4,0c-78.7,48.5-132.9,116.2-196.4,176.6
				c76.8,81.1,119.8,187.3,209.2,258.3c-2.5,1.5-6.1,5.3-9.7,5.3c-27.3,0.8-54.8,2.3-82.1,0.2c-10.6-0.8-24.1-8.1-30.1-16.7
				c-26.3-37.1-49.5-76.4-75.6-113.5C4315.1,908.7,4293.3,884.4,4272.1,857.9z"/>
			<path class="st0" d="M3703.1,624.6c108.4,0,210.2,0,314.4,0c0,34.1,0,68.2,0,109.9c-39.4-99.3-121.3-74.9-193.1-77.7
				c0,54.8,0,108,0,164.9c53.3-6.1,108,17.2,153-36.6c0,38.3,0,68.2,0,105.6c-45.1-52.9-100.5-31.5-153-36.6c0,61.2,0,119.8,0,179.7
				c40.7,0,82.8,4,123.8-1.1c39.6-4.9,62.2-37.1,81.5-69.7c2.5-4.2,4-8.7,6.1-13.1c0.2-0.4,1.3-0.4,5.1-1.5
				c-5.5,39.4-10.8,77.7-16.5,117.3c-102.9,0-204.7,0-309.9,0c30.1-18.2,33-45.9,32.8-75.6c-0.6-96.7-0.2-193.1-0.6-289.8
				C3746.7,670.2,3739.1,643.1,3703.1,624.6z"/>
			<path class="st0" d="M1970.5,927.8c-2.1,45.5-49.3,89.1-1.7,138c-38.1,0-74.5,0-116.6,0c42.6-26.9,57.8-66.3,72.4-106.3
				c30.5-83.8,61.6-167.2,92.3-250.8c4.2-11.2,7.8-22.7,11.4-34.3c5.7-18.8,6.4-36.6-15.5-49.8c32.8,0,62.4,0,93.8,0
				c27.5,71.6,55,143.5,82.4,215.3c19.7,51.7,38.9,103.7,59.7,155c10.6,26.2,22.6,52.1,50.2,68.8c-50.4,0-100.6,0-151.4,0
				c28.1-21.4,31.7-33.7,19.5-68.4c-8-22.6-11-52.7-27.1-64.8c-15.2-11.4-44.9-3.8-68-4c-30.5-0.2-61.2,0.2-91.7,0.4
				C1977.7,926.9,1975.3,927.2,1970.5,927.8z M2060.9,707.6c-1.9-0.2-3.8-0.2-5.7-0.4c-22.6,60.7-45.1,121.1-68.6,184.6
				c49.8,0,94.4,0,142,0C2105.5,828.9,2083.1,768.2,2060.9,707.6z"/>
			<path class="st0" d="M3111.7,1065.4c33.9-26.7,36.6-37.3,22.7-73.2c-4.9-12.7-12.3-25.2-14-38.3c-3.2-25.6-18.2-29.4-40-28.8
				c-39.8,1.3-79.8-0.2-119.8,1.3c-7,0.2-17.2,7.4-19.9,13.8c-7.2,16.9-10.8,35.3-16.5,52.9c-8.9,27.3-6.4,51.6,22,72.4
				c-41.9,0-79,0-122.2,0c63.3-39.4,71.3-105,93.4-162.1c29-74.9,54-151.1,81.3-226.5c7-19.5,8.9-37.5-11.9-51.9
				c30.7,0,59.3,0,89.3,0c28.8,75.2,57.6,150.1,86.4,225c17.8,46.4,33.7,93.6,54.2,138.9c12.3,27.5,31.7,51.9,47,76.8
				C3217.9,1065.4,3167.3,1065.4,3111.7,1065.4z M3097.3,890.5c-23.1-60.8-44.9-118.8-66.9-176.6c-2.1,0.4-4.2,0.9-6.3,1.3
				c-21.8,58.2-43.6,116.2-65.8,175.3C3005.8,890.5,3050.1,890.5,3097.3,890.5z"/>
			<path class="st0" d="M3342.6,1066c40.7-25.6,30.5-65.6,30.9-100.1c0.9-85.1-1.1-170-0.9-255.1c0-32.6-2.7-62.7-40.7-84.5
				c54.6,0,102,0,155.8,0c-51,36.2-37.9,86.2-39.4,131.9c-1.5,45.9-0.4,91.7-0.4,137.6c0,45.7,0,91.4,0,138.5
				c77.3,1.9,157.7,17.4,195.4-80.7c1.5,2.1,3,4.2,4.5,6.3c-6.8,35.1-13.6,70.1-20.8,106.1C3531.4,1066,3437,1066,3342.6,1066z"/>
		</g>
	</g>
	<g>
		<path class="st0" d="M557.4,757.6c36.4,35.1,72,70.7,107.8,106.1c0.8,0.6,1.3,1.3,1.9,2.1c3.8,4.5,7.4,9.1,11,13.8l0,0l0,0
			c3.6-4.7,7.2-9.3,11-13.8c0.6-0.8,1.3-1.3,1.9-2.1c35.8-35.4,71.5-71.1,107.8-106.1c8.3-7.8,16.5-15.5,24.4-23.5
			c33-33,57-70.7,56.9-119.8c-0.2-46.1-25.4-83.8-67.5-101c-5.1-2.1-10.4-3.6-15.7-4.7c-26-6.6-52.1-1.7-77,15.2
			c-0.8,0.6-1.3,0.9-2.1,1.5c-6.8,4.5-13.3,9.9-19.1,16.1c-0.4,0.4-0.8,0.8-0.9,1.1c-6.6,6.3-13.1,12.9-19.7,19.1
			c-6.6-6.3-13.1-12.9-19.7-19.1c-0.4-0.4-0.8-0.8-0.9-1.1c-5.9-6.1-12.3-11.6-19.1-16.1c-0.8-0.6-1.3-0.9-2.1-1.5
			c-24.8-16.7-51-21.6-77-15.2c-5.3,1.1-10.6,2.7-15.7,4.7c-42.1,17.1-67.3,54.8-67.5,101c-0.2,48.9,23.7,86.8,56.9,119.8
			C540.9,742.1,549,749.8,557.4,757.6z M583.7,536.4c29.6,1.1,49.3,19.1,64.6,41.9c11,16.3,19.9,34.1,29.2,50
			c0.2-0.4,0.4-0.8,0.8-1.1c0.2,0.4,0.4,0.8,0.8,1.1c9.1-15.9,18.2-33.7,29.2-50c15.4-22.7,35.1-40.7,64.6-41.9
			c2.8-0.2,5.5,0,8.3,0.2c8,0.9,15.9,3,24.1,6.6c30.9,13.6,48.7,49.7,43.6,86.6c-4.7,33-23.1,58.2-45.5,80.7
			c-21,21.2-43.4,41.1-65.2,61.6c-19.9,18.6-40.2,37.1-59.5,55.2c-19.5-18-39.6-36.6-59.5-55.2c-21.8-20.5-44.2-40.4-65.2-61.6
			c-22.4-22.6-40.7-47.8-45.5-80.7c-5.3-37,12.7-73,43.6-86.6c8.1-3.6,16.1-5.9,24.1-6.6C578.2,536.4,580.9,536.2,583.7,536.4z"/>
		<path class="st0" d="M939.9,515.8c-0.2-1.3-0.2-2.7-0.4-4c-0.4-8.7-1.1-17.2-2.7-25.8c-6.1-38.9-23.9-72.6-51-102.3
			c-29-31.8-65.8-52.9-100.8-76.4c-13.1-8.7-26.5-16.9-40-25.2c-9.1-6.1-18.4-11.9-27.5-18.2c-12.7-8.5-24.1-19.1-36-29.2
			c-1.1-1.1-2.1-2.1-3.2-3.2c-0.2,0-0.2,0.2-0.4,0.2c-0.2,0-0.2-0.2-0.4-0.2c-0.9,1.1-2.1,2.1-3.2,3.2c-11.9,10-23.1,20.7-36,29.2
			c-9.1,6.1-18.2,12.1-27.5,18.2c-13.3,8.3-26.9,16.5-40,25.2c-35.1,23.5-72,44.5-100.8,76.4c-27.1,29.8-44.9,63.5-51,102.3
			c-1.5,8.5-2.3,17.1-2.7,25.8c-0.2,1.3-0.4,2.7-0.4,4c-0.2,3-0.4,6.3-0.6,10.4c0.4,0,0.6,0,0.9,0c0,0,0,0,0,0.2c11.2,0,21,0,31.3,0
			c-1.1-17.2,0.2-33.5,4-49.1c1.7-6.6,3.8-12.9,6.1-19.1c5.7-14.2,13.6-27.7,23.7-40.6c19-24.1,42.6-43,68.2-59.7
			c42.1-27.3,84.3-54.2,127.9-82.1c43.6,28.1,85.9,55,127.9,82.1c25.6,16.5,49.1,35.4,68.2,59.7c10,12.9,18,26.3,23.7,40.6
			c2.5,6.1,4.4,12.5,6.1,19.1c3.8,15.5,5.1,31.8,4,49.1c10.4,0,20.3,0,31.3,0c0,0,0,0,0-0.2c0.4,0,0.6,0,0.9,0
			C940.2,522,940,519,939.9,515.8z"/>
		<path class="st0" d="M1037.1,818.8c0,0.9-0.2,1.9-0.2,3c0.4-0.8,0.8-1.7,1.3-2.5c0.4,0.2,0.9,0.4,1.3,0.8
			c8-16.3,15.7-32.8,23.7-48.9c16.5-33.4,33.9-66,61.8-91.5c15.7-14.4,34.1-22.4,51.6-22.9c17.8-0.2,34.9,7,46.4,20.8
			c18.2,22,11.4,55.9-13.1,65.8c-2.1,0.8-4,1.3-5.9,1.7c-4.4-0.6-8.1-3.6-11.8-9.7c-7.4-12.1-14.8-15.9-23.7-12.1
			c-0.9,0.4-1.9,0.9-2.8,1.5c-0.2,0.2-0.4,0.4-0.8,0.4c-0.2,0.2-0.4,0.4-0.6,0.4c-1.7,1.1-3,2.7-4.4,4.2c-4.2,5.3-6.1,12.5-5.1,19.5
			c0.4,3,1.1,6.1,2.5,8.9c6.6,14.6,19.3,20.5,34.5,21.8c15,1.3,29.4-2.8,40.9-11.2c29-19.9,39.8-63.5,20.8-97.8
			c-23.3-42.3-72.2-56.5-114.3-34.9c-0.9,0.4-2.1,0.9-3,1.5c-32.8,16.5-53.3,44.7-69.2,76.8c-15.2,30.5-25.8,62.5-29.8,97.8
			c-0.4,2.3-0.8,4.4-1.1,6.6C1036.9,818.6,1036.9,818.6,1037.1,818.8z"/>
		<path class="st0" d="M215.1,508.9c10.6,3,19.5,7.8,26.7,14.6c0.2,0.4,0.6,0.6,0.8,0.9c7.4,10.4,13.1,22.6,17.4,34.9
			c5.5,15.7,12.3,29.9,24.1,41.9c6.8,6.8,12.7,14.6,19.7,23.1c0.2,0.4,0.4,0.6,0.6,0.9c0,0,0,0,0-0.2c0.4,0.6,0.8,0.9,1.3,1.5
			c0.6-2.7,1.1-5.3,1.7-8c6.4-16.1,7.6-34.9,4.2-52.5c-3.4-21-13.5-39.6-28.4-52.1c-3.4-2.8-7-5.5-10.8-7.6
			c-6.4-3.6-13.1-5.9-19.7-7c-14.6-2.8-28.4-0.4-41.7,7.6c-0.2,0.2-0.6,0.2-0.8,0.4l0,0c-0.4,0.2-0.9,0.6-1.3,0.8
			C211.1,508.6,213,508.7,215.1,508.9z"/>
		<path class="st0" d="M1049,618.7c0.6,2.7,1.1,5.3,1.7,8c0.4-0.6,0.8-0.9,1.3-1.5c0,0,0,0,0,0.2c0.2-0.4,0.4-0.6,0.6-0.9
			c7-8.5,13.1-16.3,19.7-23.1c11.8-11.9,18.6-26.3,24.1-41.9c4.2-12.1,9.9-24.3,17.4-34.9c0.2-0.4,0.6-0.6,0.8-0.9
			c7.2-6.8,16.1-11.6,26.7-14.6c1.9-0.2,4-0.4,6.1-0.4c-0.4-0.4-0.9-0.6-1.3-0.8l0,0c-0.2-0.2-0.6-0.2-0.8-0.4
			c-13.3-8-27.1-10.6-41.7-7.6c-6.6,1.1-13.1,3.4-19.7,7c-3.8,2.1-7.4,4.7-10.8,7.6c-15,12.3-25,30.9-28.4,52.1
			C1041.4,584,1042.6,602.6,1049,618.7z"/>
		<path class="st0" d="M414.7,866.2c6.6,27.3,20.5,51.4,44.5,67.9c1.9,1.5,4,3,5.9,4.4c5.3,4.9,10.4,9.9,15.7,14.6
			c0.6-0.6,1.1-0.9,1.7-1.5c3,2.3,6.1,4.5,9.1,6.8c1.1-1.3,2.1-2.5,3.2-3.8c-5.3-4.9-10.4-9.7-15.7-14.6c-1.5-2.5-3.2-5.1-4.9-7.4
			c-3.8-5.3-7-10.6-10-16.1c-18-39.8-24.8-78.8,5.1-115.4c2.3-1.5,4.7-2.8,7.8-4c-1.3-0.2-2.7-0.4-3.8-0.4c0.2-0.2,0.4-0.4,0.6-0.8
			c-3.8-0.2-7.4,0-10.8,0.4c-24.4,0.8-42.3,14.2-48,34.7C411.6,841,411.4,852.9,414.7,866.2z"/>
		<path class="st0" d="M1268.9,922.1c0-0.4,0-0.6,0-0.9c0-1.1,0-2.3-0.2-3.6c0-0.2,0-0.6,0-0.8c-3.6-56.5-55-92.9-97.6-95.1
			c-0.9,0-2.1,0-3-0.2c-10.6-0.9-22-0.6-33.5,1.1c-43,6.1-80.4,24.8-115,49.8c-11.9,8.7-23.3,18.2-35.1,27.3c0.4-3.8,1.3-7,2.5-10
			c0.6-1.1,0.9-2.5,1.5-3.6c0.4-0.8,0.8-1.7,1.1-2.5c15.7-32.6,23.1-66.9,23.1-102.9c0-0.2,0-0.2,0-0.4c0.6-12.7,0.8-25.4,0.8-38.1
			c0.2-74.3,0.2-148.4,0.4-222.7c0.2-65.2-17.1-120.7-50.2-167.5c-15.4-22.2-33.9-41.1-54.4-57.8c-0.6-0.6-1.3-1.1-2.1-1.7
			c-0.4-0.4-0.8-0.8-1.3-0.9c-0.9-0.8-1.9-1.5-2.8-2.3c-0.4-0.2-0.6-0.6-0.9-0.8c-0.6-0.4-1.1-0.9-1.9-1.3
			c-13.3-10.4-27.3-19.9-41.7-29.2c-39.2-25.2-80.2-47.8-118.6-74.1c-0.4-0.2-0.6-0.4-0.9-0.8c-5.3-4-10.4-8.3-15.4-12.7
			c-10.4-9.9-19.9-21-29.2-31.7c-1.9-2.3-3.4-4.5-4.4-7c-2.1-8.5,0.9-17.4,8.5-28.4c2.3-3.4,3.8-6.4,4.4-9.5
			c0.4-0.8,0.9-1.3,1.3-1.9c-0.4-0.8-0.6-1.5-0.9-2.3c-0.2-3.8-1.5-7.6-3.8-11.9c-8.5-16.5-14.6-34.1-21-49.7
			c-0.2,0.4-0.2,0.8-0.4,0.9c-0.2-0.4-0.2-0.8-0.4-0.9c-6.4,15.5-12.5,33.4-21,49.7c-2.3,4.4-3.6,8.3-3.8,11.9
			c-0.4,0.8-0.6,1.5-0.9,2.3c0.4,0.6,0.8,1.3,1.3,1.9c0.6,3,2.1,6.1,4.4,9.5c7.6,11,10.6,19.9,8.5,28.4c-0.9,2.5-2.5,4.7-4.4,7
			c-9.3,10.8-18.8,22-29.2,31.7c-4.9,4.4-10,8.5-15.4,12.7c-0.4,0.2-0.6,0.4-0.9,0.8c-38.5,26.2-79.4,48.9-118.6,74.1
			c-14.4,9.3-28.4,18.8-41.7,29.2c-0.6,0.4-1.1,0.9-1.9,1.3c-0.4,0.2-0.6,0.6-0.9,0.8c-0.9,0.8-1.9,1.5-2.8,2.3
			c-0.4,0.4-0.8,0.8-1.3,0.9c-0.8,0.6-1.3,1.1-2.1,1.7c-20.5,16.9-39,35.6-54.4,57.8c-33.2,46.8-50.4,102.3-50.2,167.5
			c0.4,74.3,0.2,148.4,0.4,222.7c0,12.7,0.2,25.4,0.8,38.1c0,0.2,0,0.2,0,0.4c0,36,7.4,70.3,23.1,102.9c0.4,0.8,0.8,1.7,1.1,2.5
			c0.6,1.1,0.9,2.5,1.5,3.6c1.1,3,2.1,6.4,2.5,10c-11.6-9.1-22.9-18.6-35.1-27.3c-34.7-25-72-43.8-115-49.8
			c-11.6-1.7-22.9-2.1-33.5-1.1c-0.9,0-2.1,0-3,0.2c-42.8,2.5-94,38.7-97.6,95.1c0,0.2,0,0.6,0,0.8c0,1.1-0.2,2.3-0.2,3.6
			c0,0.4,0,0.6,0,0.9c0,5.1,0.2,10.6,1.1,16.1c7.6,54,64.1,92.5,117.5,80.9c33.9-7.4,50.6-27.5,46.8-56.9
			c-1.9-15.7-15.2-27.3-29.9-29.2c-0.8-0.2-1.3-0.4-2.1-0.6c-10.6-3-20.7,2.7-26.7,11.9c-5.3,8.1-5.7,17.4,0.2,26
			c3.6,5.3,9.1,8.3,15.9,9.3c2.8,0.6,6.1,0.6,9.1,0c0.4,0,0.9-0.2,1.3-0.2s0.6,0,0.9-0.2c-8.5,11.6-27.1,16.3-44.5,11.8
			c-18-4.7-32.6-16.3-41.1-31.3c-0.2-0.6-0.6-1.1-0.8-1.7c-8.7-19.9-8.9-40.7-2.1-58c5.3-12.3,14.2-22.4,25.4-29.4
			c7.4-4.5,15.2-7.6,22.9-9.5c3.8-0.9,7.6-1.5,11.6-1.9c41.7-3.4,78.3,11.8,114.1,29.6c0.4,0.2,0.8,0.4,1.1,0.6
			c12.7,6.8,25,14.4,37.3,22.2c21.8,13.8,43,28.4,64.4,43c9.1,7,18.2,14,27.1,21.2c1.1,0.9,1.9,2.3,3.2,4c-2.1-0.6-4.2-0.9-6.3-1.5
			c-13.1-3.4-25.4-7.2-37.9-9.1c-1.7-0.2-3.4-0.4-5.3-0.6c-2.8-0.6-5.9-1.3-8.7-1.9c-0.2,0.6-0.4,1.1-0.6,1.7
			c-6.8,0.2-13.5,1.5-19.7,4c-32,9.1-40,29.8-24.4,59.3c5.5-4.7,11.2-9.5,16.9-14.2c22.9-15.4,47.4-20.7,73.3-18.8
			c9.9,0.9,19.5,3,29.4,6.3c10.2,3.2,20.5,6.4,30.7,9.7c2.7,0.8,4.7,0.9,5.9,0.2c2.1,0.6,4.4,1.1,6.4,1.7c-0.2,0.6-0.6,1.1-0.8,1.9
			c1.9-0.2,3.6-0.6,5.1-0.8c8.3,2.1,16.9,4,25.4,5.5c2.8,0.9,5.7,1.7,8.7,1.9c2.3,0.2,4.5,0.2,6.8,0.2c0.9,0.2,1.7,0.2,2.7,0.2
			c42.1,4,90.4-13.3,108.4-61.2c3.6-9.3,5.3-19,5.3-28.4c0-3.2-0.2-6.4-0.4-9.7c-0.9-8.3-3.4-16.5-7-23.9
			c-7-14.4-18.6-26.3-34.3-33.5c-3.6-1.7-7.6-3-11.4-4c-1.9-0.4-3.6-0.9-5.5-1.3c-30.3-5.7-55.7,15.2-55,44.2
			c0.4,12.7,7.4,25,18.2,26.5h0.2c5.9,1.9,12.5,1.5,17.8-1.9c9.3-5.9,11.2-16.1,4.9-27.3c-1.5-2.8-3.4-5.5-5.9-9.5
			c6.3,0,12.5,0.2,18.2,1.3c6.1,1.3,11.4,4,16.3,8.3c17.8,16.3,19,44.9,2.1,64.6c-10.6,12.5-23.1,20.1-36.6,23.9
			c-6.4,1.5-13.3,2.3-20.3,2.5c-44.5,0.9-81.1-19-114.9-46.2c-9.7-7.8-18.2-15.9-25.6-24.4c-18.6-22.4-32.2-48.1-40.4-77.9
			c-0.6-1.9-0.9-3.6-1.3-5.5c-3.6-16.7-5.5-34.3-5.3-52.7c0.2-81.9,0.2-163.9,0-245.8c0.2-18.4,0.6-37,0.8-55.3
			c4-51.9,22.4-96.5,53.1-133.8c25.4-30.5,57.4-53.8,91.5-75.1c54.8-34.1,115.6-59.7,158.3-112.2c42.6,52.5,103.5,78.1,158.3,112.2
			c34.1,21.2,66.1,44.5,91.5,75.1c30.7,37.5,48.9,81.9,53.1,133.8c0.4,18.4,0.6,37,0.8,55.3c-0.2,81.9,0,163.9,0,245.8
			c0,18.4-1.7,36-5.3,52.7c-0.4,1.9-0.9,3.6-1.3,5.5c-8.1,29.8-21.8,55.5-40.4,77.9c-7.6,8.5-16.1,16.9-25.6,24.4
			c-33.7,27.3-70.3,47.2-114.9,46.2c-7-0.2-13.8-0.9-20.3-2.5c-13.5-3.8-26-11.4-36.6-23.9c-17.1-19.7-15.7-48.5,2.1-64.6
			c4.9-4.5,10.4-7,16.3-8.3c5.7-0.9,11.9-1.1,18.2-1.3c-2.5,4-4.4,6.6-5.9,9.5c-6.3,11.2-4.4,21.4,4.9,27.3
			c5.3,3.2,11.8,3.8,17.8,1.9h0.2c10.8-1.5,18-13.8,18.2-26.5c0.8-29-24.6-49.8-55-44.2c-1.9,0.4-3.8,0.8-5.5,1.3
			c-4,0.9-7.8,2.3-11.4,4c-15.7,7-27.5,19.1-34.3,33.5c-3.8,7.4-6.3,15.5-7,23.9c-0.4,3.2-0.6,6.4-0.4,9.7c0,9.5,1.7,19.1,5.3,28.4
			c18,47.8,66.5,65.2,108.4,61.2c0.9,0,1.7-0.2,2.7-0.2c2.3,0,4.5-0.2,6.8-0.2c2.8-0.2,5.9-0.9,8.7-1.9c8.5-1.5,16.9-3.4,25.4-5.5
			c1.7,0.2,3.4,0.4,5.1,0.8c-0.2-0.8-0.6-1.3-0.8-1.9c2.1-0.6,4.4-1.1,6.4-1.7c1.1,0.9,3.2,0.6,5.9-0.2c10.2-3,20.5-6.3,30.7-9.7
			c9.9-3.2,19.5-5.3,29.4-6.3c26-1.9,50.4,3.4,73.3,18.8c5.5,4.9,11.4,9.7,16.9,14.2c15.5-29.4,7.6-50.2-24.4-59.3
			c-6.3-2.5-12.9-3.6-19.7-4c-0.2-0.6-0.4-1.1-0.6-1.7c-2.8,0.6-5.9,1.3-8.7,1.9c-1.7,0.2-3.4,0.4-5.3,0.6
			c-12.7,1.9-25,5.7-37.9,9.1c-2.1,0.4-4.2,0.9-6.3,1.5c1.3-1.7,2.1-3,3.2-4c8.9-7.2,18-14.2,27.1-21.2c21.2-14.6,42.5-29.4,64.4-43
			c12.1-7.8,24.6-15.2,37.3-22.2c0.4-0.2,0.8-0.4,1.1-0.6c36-17.8,72.4-33,114.1-29.6c4,0.4,8,0.9,11.6,1.9
			c7.8,1.9,15.4,4.9,22.9,9.5c11.2,7,19.9,17.2,25.4,29.4c6.8,17.2,6.4,38.1-2.1,58c-0.2,0.6-0.6,1.1-0.8,1.7
			c-8.5,15-23.1,26.5-41.1,31.3c-17.4,4.5-36-0.4-44.5-11.8c0.4,0,0.6,0.2,0.9,0.2c0.4,0,0.9,0.2,1.3,0.2c3,0.6,6.3,0.6,9.1,0
			c6.8-0.9,12.3-4,15.9-9.3c5.9-8.5,5.5-17.8,0.2-26c-6.1-9.3-16.1-15-26.7-11.9c-0.8,0.2-1.3,0.4-2.1,0.6
			c-14.8,1.9-28.1,13.5-29.9,29.2c-3.6,29.4,12.9,49.5,46.8,56.9c53.3,11.6,109.7-26.9,117.5-80.9
			C1268.7,932.7,1269.1,927.4,1268.9,922.1z"/>
		<path class="st0" d="M123.2,768.6c11.8,8.1,26,12.5,40.9,11.2c15.2-1.3,27.9-7.2,34.5-21.8c1.3-2.8,2.1-5.9,2.5-8.9
			c1.1-6.8-0.9-14-5.1-19.5c-1.3-1.7-2.7-3-4.4-4.2c-0.2-0.2-0.4-0.4-0.6-0.4c-0.2-0.2-0.4-0.4-0.8-0.4c-0.9-0.6-1.9-1.1-2.8-1.5
			c-8.9-3.8-16.3,0-23.7,12.1c-3.6,6.1-7.4,9.1-11.8,9.7c-1.9-0.2-3.8-0.8-5.9-1.7c-24.4-9.9-31.3-43.6-13.1-65.8
			c11.6-14,28.4-21.2,46.4-20.8c17.6,0.6,35.8,8.5,51.6,22.9c27.9,25.6,45.3,58.2,61.8,91.5c8,16.3,15.9,32.6,23.7,48.9
			c0.4-0.2,0.9-0.4,1.3-0.8c0.4,0.8,0.8,1.7,1.3,2.5c0-0.9-0.2-1.9-0.2-3c0.2,0,0.2-0.2,0.4-0.2c-0.4-2.3-0.8-4.4-1.1-6.6
			c-4-35.3-14.6-67.3-29.8-97.8c-15.9-32-36.4-60.3-69.2-76.8c-0.9-0.6-2.1-0.9-3-1.5c-42.1-21.6-91-7.4-114.3,34.9
			C83.4,705.1,94.2,748.7,123.2,768.6z"/>
		<path class="st0" d="M892.3,916.2c-2.8,5.5-6.3,10.8-10,16.1c-1.7,2.5-3.4,4.9-4.9,7.4c-5.3,4.9-10.4,9.7-15.7,14.6
			c1.1,1.3,2.1,2.5,3.2,3.8c3-2.3,6.1-4.5,9.1-6.8c0.6,0.6,1.1,0.9,1.7,1.5c5.3-4.7,10.4-9.9,15.7-14.6c1.9-1.5,4-3,5.9-4.4
			c24.3-16.5,37.9-40.4,44.5-67.9c3.2-13.3,3-25.2-0.2-35.4c-5.7-20.5-23.3-33.9-48-34.7c-3.4-0.4-7-0.4-10.8-0.4
			c0.2,0.2,0.4,0.4,0.6,0.8c-1.3,0.2-2.7,0.2-3.8,0.4c2.8,1.1,5.5,2.5,7.8,4C917.1,837.4,910.3,876.4,892.3,916.2z"/>
		<path class="st0" d="M680.8,990.7c-0.8,0.9-1.7,1.9-2.7,2.7c-0.8-0.9-1.7-1.9-2.7-2.7c-12.7,13.3-25.8,27.3-39.6,41.9
			c13.5,11.9,26.3,23.3,39.2,34.9c0.9,0.9,1.9,1.9,2.8,2.7l0,0l0,0c0.9-0.9,1.9-1.9,2.8-2.7c12.9-11.4,25.8-22.9,39.2-34.9
			C706.5,1018,693.3,1004.2,680.8,990.7z"/>
	</g>
</g>
</svg>
