<?xml version="1.0" encoding="utf-8"?>
<!-- Generator: Adobe Illustrator 25.4.1, SVG Export Plug-In . SVG Version: 6.00 Build 0)  -->
<svg version="1.1" id="Layer_1" xmlns="http://www.w3.org/2000/svg" xmlns:xlink="http://www.w3.org/1999/xlink" x="0px" y="0px"
	 viewBox="0 0 4618.5 1617.2" style="enable-background:new 0 0 4618.5 1617.2;" xml:space="preserve">
<style type="text/css">
	.st0{fill:#FFFFFF;}
</style>
<g>
	<g>
		<g>
			<path class="st0" d="M3267,573.6c46.1,53,75.6,115.9,133.4,155.2c-38.7,17.9-86.4,7.7-110.1-25.4c-21.8-30.7-41.4-63.1-61.9-94.7
				c-18.2-28.3-18.2-28.3-55.3-24.5c0,37.9-1.4,76.2,0.9,114.3c0.6,11.4,11.4,22.4,17.6,33.7c-34.6,0-71.4,0-112.3,0
				c30.7-18.1,29.4-45.5,29.2-73c-0.5-72.9-0.5-145.9,0.2-218.8c0.3-25-6.9-45-28.9-61c20.6,0,41.3-0.5,61.9,0.2
				c45.3,1.1,90.9,0,136,4.7c36,3.8,64.4,24.5,79.8,58.7c23.5,52.4-4.1,106.7-62.3,124.5C3287.2,569.9,3278.9,571.1,3267,573.6z
				 M3171.8,557.1c19.3,0,35.1,0.3,51,0c45.5-0.8,71.7-27.3,72.7-73.3c0.9-41-19.6-73.3-51.5-76.6c-24.4-2.4-49.2-0.5-72.1-0.5
				C3171.8,456,3171.8,505,3171.8,557.1z"/>
			<path class="st0" d="M2289.9,732.2c-38.1,0-79.3,0-123.3,0c17.3-14.6,25.4-31,16.9-52.2c-7.4-18.4-14-37-21.8-55.3
				c-1.1-2.4-7.5-3.6-11.6-3.6c-38.4-0.3-76.8-0.6-115.2,0.3c-5.3,0.2-12.8,6.6-14.9,12c-5.6,14.9-8.4,30.7-13.2,45.9
				c-6,19.4-3.8,36.4,16.1,52.1c-33.9,0-64.3,0-98.8,0c32.5-16.4,45-43.5,55.9-72.6c29.8-80.2,61-159.9,90.2-240.3
				c4.1-11.3,0.6-25.4,0.6-39.6c-4.2,0.8-3,0.3-1.8,0.3c21.1,0.5,46.7-6.3,61.9,3.5c14,9,17,35.4,24.5,54.2
				c33,83.1,64.7,166.5,99.2,249C2261.7,703.7,2278.1,717.4,2289.9,732.2z M2096.9,450.3c-1.5-0.9-3-1.7-4.5-2.6
				c-19.6,48.2-39.1,96.5-59.3,146.3c41.4,0,78.9,0,118,0C2132.6,545.3,2114.6,497.7,2096.9,450.3z"/>
			<path class="st0" d="M3570.7,379.9c26.5,0,49.4,0,73.2,0c34,89,68.1,177.5,102.1,266c5.4,14.3,10.1,29.2,17.9,42.2
				c9.6,15.8,22.1,30,33.1,44.4c-37,0-77.4,0-121.5,0c26.3-18.8,22.3-40.2,13.2-64c-18.4-47.6-17.6-47.7-69.7-47.3
				c-27.4,0.2-54.8,0-84.6,0c-1.7,37.6-41.3,72.3-1.5,111.3c-31,0-60.7,0-94.7,0c50-31,55.7-83.7,73.8-129.3
				c24.4-61.7,46.2-124.4,69.6-186.4C3586.6,402.7,3585.3,390.9,3570.7,379.9z M3661.1,594.3c-18.8-49.4-36.7-96.4-54.7-143.3
				c-1.7,0.2-3.2,0.3-4.8,0.5c-18.8,47-37.6,94.1-57.2,142.9C3584.2,594.3,3620.9,594.3,3661.1,594.3z"/>
			<path class="st0" d="M2807.9,380.8c17.2,0,43.7-7.5,59.2,2.3c14.6,9.2,17.9,36.4,25.6,56c28.9,73.6,57.7,147.4,86.4,221.2
				c10.4,26.6,20.5,53.9,47.3,71.5c-39.7,0-79.5,0-120.3,0c39.6-36.6,2.1-69.9-6.2-104.8c-0.6-2.7-8-5.4-12.2-5.6
				c-37.8-0.6-75.4-0.9-113.2-0.2c-4.8,0.2-11.9,5.9-14,10.7c-5.7,13.4-9.9,27.6-13.9,41.7c-7.8,27.7-5.7,36.9,13.4,58.6
				c-30,0-58.9,0-90.6,0c45.5-33.1,52.7-85.1,70.6-131c24.1-61.9,46.4-124.4,68.2-187.1C2811.7,404.4,2808.2,392.4,2807.9,380.8z
				 M2888.8,594.4c-19-49.7-37.2-97.6-57.2-150c-20.6,52.4-39.6,100.4-59,150C2811.9,594.4,2848.7,594.4,2888.8,594.4z"/>
			<path class="st0" d="M2611.9,464.8c-6.3-6.6-12.9-12.9-18.7-20c-34.5-42.6-79.5-54.8-130.5-41.3c-44.6,11.9-67.1,46.4-78.1,89
				c-13.4,51.2-10.4,101.2,11.3,149.8c18.7,41.7,49.1,67.9,95.6,72.4c49.2,4.8,86.6-16.6,115.6-54.4c6.2-8,10.4-17.3,18.2-30.7
				c-3.8,26.9-6.5,48.9-10.2,70.8c-0.6,3.6-5,7.2-8.4,9.5c-64,43.4-167.1,40.5-229.7-6.5c-65.3-48.9-86-154.8-46.5-231.1
				c46.2-89.3,145.9-118.3,240.4-90c27.9,8.3,47.7,19,42,53c-1.5,8.7,1.8,18.4,2.9,27.6C2614.5,463.4,2613.3,464,2611.9,464.8z"/>
		</g>
		<g>
			<path class="st0" d="M2128,1004.4c9.5,3.3,17.9,6,26.2,9c42.9,15.8,63.1,45.6,59.3,87.3c-3.8,39.9-37.2,78.4-76.9,81.6
				c-70.2,5.6-140.6,7.7-212.4,8.6c32.4-19.9,29.8-50.3,29.7-79.8c-0.2-69.7-0.2-139.4,0.2-209.1c0.2-25.3-4.2-48.2-29.8-62.6
				c69.3,6,138.7-11,206.7,9.2c37.8,11.1,60.2,35.8,62.8,75.3c2.3,34.5-19,55.1-46.7,70.5C2141,997.4,2134.8,1000.6,2128,1004.4z
				 M2016.2,1017.6c0,48.6,0,97.4,0,147.8c18.5,0.9,35.7,2.1,52.8,2.6c46.8,1.2,75.6-26.5,77.1-73.6c1.4-45.9-25.4-74.8-71.8-76.6
				C2055.3,1017,2036.4,1017.6,2016.2,1017.6z M2015.1,992c21.4,0,41,1.1,60.4-0.3c29.2-2,48.5-22.3,51.3-51.8
				c3.6-36.7-11.7-66.5-41.1-72.6c-22.6-4.5-46.4-3.9-70.8-5.6C2015.1,907,2015.1,949,2015.1,992z"/>
			<path class="st0" d="M2749.1,1042.2c0,37.5-1.4,74.8,0.8,112c0.8,11.7,11.1,22.9,17.2,34.3c-33.3,0-68.8,0-110.8,0
				c28.2-13.4,30.4-34.8,30.4-55.7c0.3-55.3-0.6-110.7-1.1-165.9c-0.2-24.7-0.6-49.5-0.8-74.2c-0.2-22.7-8.1-41.1-29.2-54.8
				c16,0,31.9-0.3,48,0c45.3,1.1,90.8,0.3,136,3.9c52.7,4.2,91.2,40.2,95,84.2c4.2,49.4-22.9,86.7-71.7,98.6
				c-6.8,1.7-13.4,3.2-22.9,5.3c46.4,51.5,76.3,113.7,132.9,154.2c-39.9,17.5-85.2,6.8-108.2-25.9c-21.2-30.3-42.8-60.7-60.7-93
				C2791.4,1042,2775.3,1035.4,2749.1,1042.2z M2747,864.5c0,51.2,0,99.8,0,149.2c12.2,0.6,22.4,1.1,32.5,1.8
				c49.7,4.1,85.2-18.1,88.7-71.8c2.7-43.1-22-76-60.5-78.9C2787.3,863.1,2766.8,864.5,2747,864.5z"/>
			<path class="st0" d="M4172.6,1023.6c-21.1,12.5-32.2,29.2-28.5,55c2.1,14.5,0.5,29.4,0.5,44.1c0,38.5,0,38.7,27.9,65.2
				c-40.8,0-79.3,0-122.6,0c26.6-12.2,30.6-32.2,30.4-55c-0.5-80.5-0.5-161.1-0.2-241.8c0.2-22.4-10.5-38.4-29.2-51.6
				c41.1,0,79.9,0,118.8,0c-22.3,17-26,38.8-25.4,63.7c0.9,37.5,0.3,75,0.3,112.5c1.7,1.1,3.3,2.1,5,3.3
				c39.9-44.1,80.8-87.5,119.2-132.9c15.8-18.7,13.4-26.8-1.5-47.4c32.8,0,64.7,0,101.2,0c-62.5,38.5-105.5,92.3-156,140.3
				c61,64.4,95.2,148.7,166.2,205.2c-2,1.2-4.8,4.2-7.7,4.2c-21.7,0.6-43.5,1.8-65.2,0.2c-8.4-0.6-19.1-6.5-23.9-13.2
				c-20.9-29.5-39.3-60.7-60.1-90.2C4206.8,1064,4189.4,1044.7,4172.6,1023.6z"/>
			<path class="st0" d="M3720.6,838.3c86.1,0,167,0,249.8,0c0,27.1,0,54.2,0,87.3c-31.3-78.9-96.4-59.5-153.4-61.7
				c0,43.5,0,85.8,0,131c42.3-4.8,85.8,13.7,121.5-29.1c0,30.4,0,54.2,0,83.9c-35.8-42-79.8-25-121.5-29.1c0,48.6,0,95.2,0,142.7
				c32.4,0,65.8,3.2,98.3-0.9c31.5-3.9,49.4-29.5,64.7-55.4c2-3.3,3.2-6.9,4.8-10.4c0.2-0.3,1.1-0.3,4.1-1.2
				c-4.4,31.3-8.6,61.7-13.1,93.2c-81.8,0-162.6,0-246.2,0c23.9-14.5,26.2-36.4,26-60.1c-0.5-76.8-0.2-153.4-0.5-230.2
				C3755.2,874.6,3749.2,853.1,3720.6,838.3z"/>
			<path class="st0" d="M2344.4,1079.2c-1.7,36.1-39.1,70.8-1.4,109.6c-30.3,0-59.2,0-92.6,0c33.9-21.4,45.9-52.7,57.5-84.5
				c24.2-66.5,48.9-132.8,73.3-199.2c3.3-8.9,6.2-18.1,9-27.3c4.5-14.9,5.1-29.1-12.3-39.6c26,0,49.5,0,74.5,0
				c21.8,56.9,43.7,114,65.5,171c15.7,41.1,30.9,82.4,47.4,123.2c8.4,20.8,17.9,41.4,39.9,54.7c-40,0-79.9,0-120.3,0
				c22.3-17,25.1-26.8,15.5-54.4c-6.3-17.9-8.7-41.9-21.5-51.5c-12-9-35.7-3-54-3.2c-24.2-0.2-48.6,0.2-72.9,0.3
				C2350.1,1078.4,2348.2,1078.7,2344.4,1079.2z M2416.2,904.2c-1.5-0.2-3-0.2-4.5-0.3c-17.9,48.2-35.8,96.2-54.5,146.6
				c39.6,0,75,0,112.8,0C2451.6,1000.6,2433.8,952.4,2416.2,904.2z"/>
			<path class="st0" d="M3250.9,1188.5c26.9-21.2,29.1-29.7,18.1-58.1c-3.9-10.1-9.8-20-11.1-30.4c-2.6-20.3-14.5-23.3-31.8-22.9
				c-31.6,1.1-63.4-0.2-95.2,1.1c-5.6,0.2-13.7,5.9-15.8,11c-5.7,13.4-8.6,28-13.1,42c-7.1,21.7-5.1,41,17.5,57.5
				c-33.3,0-62.8,0-97.1,0c50.3-31.3,56.6-83.4,74.2-128.7c23-59.5,42.9-120,64.6-179.9c5.6-15.5,7.1-29.8-9.5-41.3
				c24.4,0,47.1,0,70.9,0c22.9,59.8,45.8,119.2,68.7,178.7c14.2,36.9,26.8,74.4,43.1,110.4c9.8,21.8,25.1,41.3,37.3,61
				C3335.2,1188.5,3295,1188.5,3250.9,1188.5z M3239.4,1049.5c-18.4-48.3-35.7-94.4-53.1-140.3c-1.7,0.3-3.3,0.8-5,1.1
				c-17.3,46.2-34.6,92.3-52.2,139.3C3166.7,1049.5,3201.9,1049.5,3239.4,1049.5z"/>
			<path class="st0" d="M3434.3,1188.9c32.4-20.3,24.2-52.1,24.5-79.5c0.8-67.6-0.9-135-0.8-202.6c0-25.9-2.1-49.8-32.4-67.1
				c43.4,0,81,0,123.8,0c-40.5,28.8-30.1,68.5-31.3,104.8c-1.2,36.4-0.3,72.9-0.3,109.3c0,36.3,0,72.6,0,110.1
				c61.4,1.5,125.3,13.9,155.2-64.1c1.2,1.7,2.4,3.3,3.6,5c-5.4,27.9-10.8,55.7-16.6,84.3
				C3584.2,1188.9,3509.2,1188.9,3434.3,1188.9z"/>
		</g>
	</g>
	<g>
		<path class="st0" d="M870.5,1061.6c48.8,47,96.6,94.8,144.6,142.3c1,0.8,1.8,1.8,2.5,2.8c5.1,6.1,9.9,12.2,14.7,18.5l0,0l0,0
			c4.8-6.4,9.7-12.5,14.7-18.5c0.8-1,1.8-1.8,2.5-2.8c48-47.5,95.8-95.3,144.6-142.3c11.2-10.4,22.1-20.8,32.8-31.5
			c44.2-44.2,76.5-94.8,76.2-160.6c-0.3-61.7-34-112.3-90.5-135.4c-6.9-2.8-14-4.8-21.1-6.4c-34.8-8.9-69.9-2.3-103.2,20.3
			c-1,0.8-1.8,1.3-2.8,2c-9.1,6.1-17.8,13.2-25.7,21.6c-0.5,0.5-1,1-1.3,1.5c-8.9,8.4-17.5,17.3-26.4,25.7
			c-8.9-8.4-17.5-17.3-26.4-25.7c-0.5-0.5-1-1-1.3-1.5c-7.9-8.1-16.5-15.5-25.7-21.6c-1-0.8-1.8-1.3-2.8-2
			c-33.3-22.4-68.4-29-103.2-20.3c-7.1,1.5-14.2,3.6-21.1,6.4c-56.4,22.9-90.2,73.4-90.5,135.4c-0.3,65.6,31.8,116.4,76.2,160.6
			C848.3,1040.7,859.3,1051.2,870.5,1061.6z M905.8,765c39.6,1.5,66.1,25.7,86.6,56.2c14.7,21.9,26.7,45.7,39.1,67.1
			c0.3-0.5,0.5-1,1-1.5c0.3,0.5,0.5,1,1,1.5c12.2-21.3,24.4-45.2,39.1-67.1c20.6-30.5,47-54.6,86.6-56.2c3.8-0.3,7.4,0,11.2,0.3
			c10.7,1.3,21.3,4.1,32.3,8.9c41.4,18.3,65.3,66.6,58.4,116.1c-6.4,44.2-31,78-61,108.2c-28.2,28.5-58.2,55.1-87.4,82.6
			c-26.7,24.9-53.9,49.8-79.8,73.9c-26.2-24.1-53.1-49-79.8-73.9c-29.2-27.4-59.2-54.1-87.4-82.6c-30-30.2-54.6-64-61-108.2
			c-7.1-49.5,17-97.8,58.4-116.1c10.9-4.8,21.6-7.9,32.3-8.9C898.4,765,902,764.8,905.8,765z"/>
		<path class="st0" d="M1383.2,737.3c-0.3-1.8-0.3-3.6-0.5-5.3c-0.5-11.7-1.5-23.1-3.6-34.6c-8.1-52.1-32-97.3-68.4-137.2
			c-38.9-42.7-88.2-70.9-135.2-102.4c-17.5-11.7-35.6-22.6-53.6-33.8c-12.2-8.1-24.6-16-36.8-24.4c-17-11.4-32.3-25.7-48.3-39.1
			c-1.5-1.5-2.8-2.8-4.3-4.3c-0.3,0-0.3,0.3-0.5,0.3c-0.3,0-0.3-0.3-0.5-0.3c-1.3,1.5-2.8,2.8-4.3,4.3c-16,13.5-31,27.7-48.3,39.1
			c-12.2,8.1-24.4,16.3-36.8,24.4c-17.8,11.2-36.1,22.1-53.6,33.8c-47,31.5-96.6,59.7-135.2,102.4c-36.3,39.9-60.2,85.1-68.4,137.2
			c-2,11.4-3,22.9-3.6,34.6c-0.3,1.8-0.5,3.6-0.5,5.3c-0.3,4.1-0.5,8.4-0.8,14c0.5,0,0.8,0,1.3,0c0,0,0,0,0,0.3c15,0,28.2,0,41.9,0
			c-1.5-23.1,0.3-45,5.3-65.8c2.3-8.9,5.1-17.3,8.1-25.7c7.6-19.1,18.3-37.1,31.8-54.4c25.4-32.3,57.2-57.7,91.5-80
			c56.4-36.6,113.1-72.7,171.5-110c58.4,37.6,115.1,73.7,171.5,110c34.3,22.1,65.8,47.5,91.5,80c13.5,17.3,24.1,35.3,31.8,54.4
			c3.3,8.1,5.8,16.8,8.1,25.7c5.1,20.8,6.9,42.7,5.3,65.8c14,0,27.2,0,41.9,0c0,0,0,0,0-0.3c0.5,0,0.8,0,1.3,0
			C1383.7,745.7,1383.5,741.7,1383.2,737.3z"/>
		<path class="st0" d="M1513.6,1143.6c0,1.3-0.3,2.5-0.3,4.1c0.5-1,1-2.3,1.8-3.3c0.5,0.3,1.3,0.5,1.8,1
			c10.7-21.9,21.1-44,31.8-65.6c22.1-44.7,45.5-88.4,82.8-122.7c21.1-19.3,45.7-30,69.1-30.7c23.9-0.3,46.8,9.4,62.3,28
			c24.4,29.5,15.2,75-17.5,88.2c-2.8,1-5.3,1.8-7.9,2.3c-5.8-0.8-10.9-4.8-15.8-13c-9.9-16.3-19.8-21.3-31.8-16.3
			c-1.3,0.5-2.5,1.3-3.8,2c-0.3,0.3-0.5,0.5-1,0.5c-0.3,0.3-0.5,0.5-0.8,0.5c-2.3,1.5-4.1,3.6-5.8,5.6c-5.6,7.1-8.1,16.8-6.9,26.2
			c0.5,4.1,1.5,8.1,3.3,11.9c8.9,19.6,25.9,27.4,46.2,29.2c20.1,1.8,39.4-3.8,54.9-15c38.9-26.7,53.4-85.1,28-131.1
			c-31.3-56.7-96.8-75.7-153.2-46.8c-1.3,0.5-2.8,1.3-4.1,2c-44,22.1-71.4,60-92.7,102.9c-20.3,40.9-34.6,83.9-39.9,131.1
			c-0.5,3-1,5.8-1.5,8.9C1513.3,1143.4,1513.3,1143.4,1513.6,1143.6z"/>
		<path class="st0" d="M411.6,728.2c14.2,4.1,26.2,10.4,35.8,19.6c0.3,0.5,0.8,0.8,1,1.3c9.9,14,17.5,30.2,23.4,46.8
			c7.4,21.1,16.5,40.1,32.3,56.2c9.1,9.1,17,19.6,26.4,31c0.3,0.5,0.5,0.8,0.8,1.3c0,0,0,0,0-0.3c0.5,0.8,1,1.3,1.8,2
			c0.8-3.6,1.5-7.1,2.3-10.7c8.6-21.6,10.2-46.8,5.6-70.4c-4.6-28.2-18-53.1-38.1-69.9c-4.6-3.8-9.4-7.4-14.5-10.2
			c-8.6-4.8-17.5-7.9-26.4-9.4c-19.6-3.8-38.1-0.5-55.9,10.2c-0.3,0.3-0.8,0.3-1,0.5l0,0c-0.5,0.3-1.3,0.8-1.8,1
			C406.2,727.7,408.8,727.9,411.6,728.2z"/>
		<path class="st0" d="M1529.6,875.3c0.8,3.6,1.5,7.1,2.3,10.7c0.5-0.8,1-1.3,1.8-2c0,0,0,0,0,0.3c0.3-0.5,0.5-0.8,0.8-1.3
			c9.4-11.4,17.5-21.9,26.4-31c15.8-16,24.9-35.3,32.3-56.2c5.6-16.3,13.2-32.5,23.4-46.8c0.3-0.5,0.8-0.8,1-1.3
			c9.7-9.1,21.6-15.5,35.8-19.6c2.5-0.3,5.3-0.5,8.1-0.5c-0.5-0.5-1.3-0.8-1.8-1l0,0c-0.3-0.3-0.8-0.3-1-0.5
			c-17.8-10.7-36.3-14.2-55.9-10.2c-8.9,1.5-17.5,4.6-26.4,9.4c-5.1,2.8-9.9,6.4-14.5,10.2c-20.1,16.5-33.5,41.4-38.1,69.9
			C1519.4,828.8,1520.9,853.7,1529.6,875.3z"/>
		<path class="st0" d="M679.1,1207.2c8.9,36.6,27.4,68.9,59.7,91c2.5,2,5.3,4.1,7.9,5.8c7.1,6.6,14,13.2,21.1,19.6
			c0.8-0.8,1.5-1.3,2.3-2c4.1,3,8.1,6.1,12.2,9.1c1.5-1.8,2.8-3.3,4.3-5.1c-7.1-6.6-14-13-21.1-19.6c-2-3.3-4.3-6.9-6.6-9.9
			c-5.1-7.1-9.4-14.2-13.5-21.6c-24.1-53.4-33.3-105.7,6.9-154.7c3-2,6.4-3.8,10.4-5.3c-1.8-0.3-3.6-0.5-5.1-0.5
			c0.3-0.3,0.5-0.5,0.8-1c-5.1-0.3-9.9,0-14.5,0.5c-32.8,1-56.7,19.1-64.3,46.5C675.1,1173.4,674.8,1189.4,679.1,1207.2z"/>
		<path class="st0" d="M1824.3,1282.1c0-0.5,0-0.8,0-1.3c0-1.5,0-3-0.3-4.8c0-0.3,0-0.8,0-1c-4.8-75.7-73.7-124.5-130.9-127.6
			c-1.3,0-2.8,0-4.1-0.3c-14.2-1.3-29.5-0.8-45,1.5c-57.7,8.1-107.7,33.3-154.2,66.8c-16,11.7-31.3,24.4-47,36.6
			c0.5-5.1,1.8-9.4,3.3-13.5c0.8-1.5,1.3-3.3,2-4.8c0.5-1,1-2.3,1.5-3.3c21.1-43.7,31-89.7,31-138c0-0.3,0-0.3,0-0.5
			c0.8-17,1-34,1-51.1c0.3-99.6,0.3-199,0.5-298.6c0.3-87.4-22.9-161.9-67.3-224.6c-20.6-29.7-45.5-55.1-72.9-77.5
			c-0.8-0.8-1.8-1.5-2.8-2.3c-0.5-0.5-1-1-1.8-1.3c-1.3-1-2.5-2-3.8-3c-0.5-0.3-0.8-0.8-1.3-1c-0.8-0.5-1.5-1.3-2.5-1.8
			c-17.8-14-36.6-26.7-55.9-39.1c-52.6-33.8-107.5-64-159.1-99.4c-0.5-0.3-0.8-0.5-1.3-1c-7.1-5.3-14-11.2-20.6-17
			c-14-13.2-26.7-28.2-39.1-42.4c-2.5-3-4.6-6.1-5.8-9.4c-2.8-11.4,1.3-23.4,11.4-38.1c3-4.6,5.1-8.6,5.8-12.7
			c0.5-1,1.3-1.8,1.8-2.5c-0.5-1-0.8-2-1.3-3c-0.3-5.1-2-10.2-5.1-16c-11.4-22.1-19.6-45.7-28.2-66.6c-0.3,0.5-0.3,1-0.5,1.3
			c-0.3-0.5-0.3-1-0.5-1.3c-8.6,20.8-16.8,44.7-28.2,66.6c-3,5.8-4.8,11.2-5.1,16c-0.5,1-0.8,2-1.3,3c0.5,0.8,1,1.8,1.8,2.5
			c0.8,4.1,2.8,8.1,5.8,12.7c10.2,14.7,14.2,26.7,11.4,38.1c-1.3,3.3-3.3,6.4-5.8,9.4c-12.5,14.5-25.2,29.5-39.1,42.4
			c-6.6,5.8-13.5,11.4-20.6,17c-0.5,0.3-0.8,0.5-1.3,1c-51.6,35.1-106.5,65.6-159.1,99.4c-19.3,12.5-38.1,25.2-55.9,39.1
			c-0.8,0.5-1.5,1.3-2.5,1.8c-0.5,0.3-0.8,0.8-1.3,1c-1.3,1-2.5,2-3.8,3c-0.5,0.5-1,1-1.8,1.3c-1,0.8-1.8,1.5-2.8,2.3
			c-27.4,22.6-52.3,47.8-72.9,77.5c-44.5,62.8-67.6,137.2-67.3,224.6c0.5,99.6,0.3,199,0.5,298.6c0,17,0.3,34,1,51.1
			c0,0.3,0,0.3,0,0.5c0,48.3,9.9,94.3,31,138c0.5,1,1,2.3,1.5,3.3c0.8,1.5,1.3,3.3,2,4.8c1.5,4.1,2.8,8.6,3.3,13.5
			c-15.5-12.2-30.7-24.9-47-36.6c-46.5-33.5-96.6-58.7-154.2-66.8c-15.5-2.3-30.7-2.8-45-1.5c-1.3,0-2.8,0-4.1,0.3
			c-57.4,3.3-126,51.8-130.9,127.6c0,0.3,0,0.8,0,1c0,1.5-0.3,3-0.3,4.8c0,0.5,0,0.8,0,1.3c0,6.9,0.3,14.2,1.5,21.6
			c10.2,72.4,85.9,124,157.5,108.5c45.5-9.9,67.8-36.8,62.8-76.2c-2.5-21.1-20.3-36.6-40.1-39.1c-1-0.3-1.8-0.5-2.8-0.8
			c-14.2-4.1-27.7,3.6-35.8,16c-7.1,10.9-7.6,23.4,0.3,34.8c4.8,7.1,12.2,11.2,21.3,12.5c3.8,0.8,8.1,0.8,12.2,0
			c0.5,0,1.3-0.3,1.8-0.3s0.8,0,1.3-0.3c-11.4,15.5-36.3,21.9-59.7,15.8c-24.1-6.4-43.7-21.9-55.1-41.9c-0.3-0.8-0.8-1.5-1-2.3
			c-11.7-26.7-11.9-54.6-2.8-77.8c7.1-16.5,19.1-30,34-39.4c9.9-6.1,20.3-10.2,30.7-12.7c5.1-1.3,10.2-2,15.5-2.5
			c55.9-4.6,104.9,15.8,153,39.6c0.5,0.3,1,0.5,1.5,0.8c17,9.1,33.5,19.3,50.1,29.7c29.2,18.5,57.7,38.1,86.4,57.7
			c12.2,9.4,24.4,18.8,36.3,28.5c1.5,1.3,2.5,3,4.3,5.3c-2.8-0.8-5.6-1.3-8.4-2c-17.5-4.6-34-9.7-50.8-12.2
			c-2.3-0.3-4.6-0.5-7.1-0.8c-3.8-0.8-7.9-1.8-11.7-2.5c-0.3,0.8-0.5,1.5-0.8,2.3c-9.1,0.3-18,2-26.4,5.3
			c-42.9,12.2-53.6,39.9-32.8,79.5c7.4-6.4,15-12.7,22.6-19.1c30.7-20.6,63.5-27.7,98.3-25.2c13.2,1.3,26.2,4.1,39.4,8.4
			c13.7,4.3,27.4,8.6,41.2,13c3.6,1,6.4,1.3,7.9,0.3c2.8,0.8,5.8,1.5,8.6,2.3c-0.3,0.8-0.8,1.5-1,2.5c2.5-0.3,4.8-0.8,6.9-1
			c11.2,2.8,22.6,5.3,34,7.4c3.8,1.3,7.6,2.3,11.7,2.5c3,0.3,6.1,0.3,9.1,0.3c1.3,0.3,2.3,0.3,3.6,0.3
			c56.4,5.3,121.2-17.8,145.3-82.1c4.8-12.5,7.1-25.4,7.1-38.1c0-4.3-0.3-8.6-0.5-13c-1.3-11.2-4.6-22.1-9.4-32
			c-9.4-19.3-24.9-35.3-46-45c-4.8-2.3-10.2-4.1-15.2-5.3c-2.5-0.5-4.8-1.3-7.4-1.8c-40.7-7.6-74.7,20.3-73.7,59.2
			c0.5,17,9.9,33.5,24.4,35.6h0.3c7.9,2.5,16.8,2,23.9-2.5c12.5-7.9,15-21.6,6.6-36.6c-2-3.8-4.6-7.4-7.9-12.7
			c8.4,0,16.8,0.3,24.4,1.8c8.1,1.8,15.2,5.3,21.9,11.2c23.9,21.9,25.4,60.2,2.8,86.6c-14.2,16.8-31,26.9-49,32
			c-8.6,2-17.8,3-27.2,3.3c-59.7,1.3-108.8-25.4-154-62c-13-10.4-24.4-21.3-34.3-32.8c-24.9-30-43.2-64.5-54.1-104.4
			c-0.8-2.5-1.3-4.8-1.8-7.4c-4.8-22.4-7.4-46-7.1-70.6c0.3-109.8,0.3-219.8,0-329.6c0.3-24.6,0.8-49.5,1-74.2
			c5.3-69.6,30-129.3,71.1-179.4c34-40.9,77-72.2,122.7-100.6c73.4-45.7,155-80,212.2-150.4c57.2,70.4,138.7,104.7,212.2,150.4
			c45.7,28.5,88.7,59.7,122.7,100.6c41.2,50.3,65.6,109.8,71.1,179.4c0.5,24.6,0.8,49.5,1,74.2c-0.3,109.8,0,219.8,0,329.6
			c0,24.6-2.3,48.3-7.1,70.6c-0.5,2.5-1.3,4.8-1.8,7.4c-10.9,39.9-29.2,74.4-54.1,104.4c-10.2,11.4-21.6,22.6-34.3,32.8
			c-45.2,36.6-94.3,63.3-154,62c-9.4-0.3-18.5-1.3-27.2-3.3c-18-5.1-34.8-15.2-49-32c-22.9-26.4-21.1-65,2.8-86.6
			c6.6-6.1,14-9.4,21.9-11.2c7.6-1.3,16-1.5,24.4-1.8c-3.3,5.3-5.8,8.9-7.9,12.7c-8.4,15-5.8,28.7,6.6,36.6
			c7.1,4.3,15.8,5.1,23.9,2.5h0.3c14.5-2,24.1-18.5,24.4-35.6c1-38.9-33-66.8-73.7-59.2c-2.5,0.5-5.1,1-7.4,1.8
			c-5.3,1.3-10.4,3-15.2,5.3c-21.1,9.4-36.8,25.7-46,45c-5.1,9.9-8.4,20.8-9.4,32c-0.5,4.3-0.8,8.6-0.5,13c0,12.7,2.3,25.7,7.1,38.1
			c24.1,64,89.2,87.4,145.3,82.1c1.3,0,2.3-0.3,3.6-0.3c3,0,6.1-0.3,9.1-0.3c3.8-0.3,7.9-1.3,11.7-2.5c11.4-2,22.6-4.6,34-7.4
			c2.3,0.3,4.6,0.5,6.9,1c-0.3-1-0.8-1.8-1-2.5c2.8-0.8,5.8-1.5,8.6-2.3c1.5,1.3,4.3,0.8,7.9-0.3c13.7-4.1,27.4-8.4,41.2-13
			c13.2-4.3,26.2-7.1,39.4-8.4c34.8-2.5,67.6,4.6,98.3,25.2c7.4,6.6,15.2,13,22.6,19.1c20.8-39.4,10.2-67.3-32.8-79.5
			c-8.4-3.3-17.3-4.8-26.4-5.3c-0.3-0.8-0.5-1.5-0.8-2.3c-3.8,0.8-7.9,1.8-11.7,2.5c-2.3,0.3-4.6,0.5-7.1,0.8
			c-17,2.5-33.5,7.6-50.8,12.2c-2.8,0.5-5.6,1.3-8.4,2c1.8-2.3,2.8-4.1,4.3-5.3c11.9-9.7,24.1-19.1,36.3-28.5
			c28.5-19.6,56.9-39.4,86.4-57.7c16.3-10.4,33-20.3,50.1-29.7c0.5-0.3,1-0.5,1.5-0.8c48.3-23.9,97.1-44.2,153-39.6
			c5.3,0.5,10.7,1.3,15.5,2.5c10.4,2.5,20.6,6.6,30.7,12.7c15,9.4,26.7,23.1,34,39.4c9.1,23.1,8.6,51.1-2.8,77.8
			c-0.3,0.8-0.8,1.5-1,2.3c-11.4,20.1-31,35.6-55.1,41.9c-23.4,6.1-48.3-0.5-59.7-15.8c0.5,0,0.8,0.3,1.3,0.3c0.5,0,1.3,0.3,1.8,0.3
			c4.1,0.8,8.4,0.8,12.2,0c9.1-1.3,16.5-5.3,21.3-12.5c7.9-11.4,7.4-23.9,0.3-34.8c-8.1-12.5-21.6-20.1-35.8-16
			c-1,0.3-1.8,0.5-2.8,0.8c-19.8,2.5-37.6,18-40.1,39.1c-4.8,39.4,17.3,66.3,62.8,76.2c71.4,15.5,147.1-36.1,157.5-108.5
			C1824.1,1296.4,1824.6,1289.2,1824.3,1282.1z"/>
		<path class="st0" d="M288.3,1076.3c15.8,10.9,34.8,16.8,54.9,15c20.3-1.8,37.4-9.7,46.2-29.2c1.8-3.8,2.8-7.9,3.3-11.9
			c1.5-9.1-1.3-18.8-6.9-26.2c-1.8-2.3-3.6-4.1-5.8-5.6c-0.3-0.3-0.5-0.5-0.8-0.5c-0.3-0.3-0.5-0.5-1-0.5c-1.3-0.8-2.5-1.5-3.8-2
			c-11.9-5.1-21.9,0-31.8,16.3c-4.8,8.1-9.9,12.2-15.8,13c-2.5-0.3-5.1-1-7.9-2.3c-32.8-13.2-41.9-58.4-17.5-88.2
			c15.5-18.8,38.1-28.5,62.3-28c23.6,0.8,48,11.4,69.1,30.7c37.4,34.3,60.7,78,82.8,122.7c10.7,21.9,21.3,43.7,31.8,65.6
			c0.5-0.3,1.3-0.5,1.8-1c0.5,1,1,2.3,1.8,3.3c0-1.3-0.3-2.5-0.3-4.1c0.3,0,0.3-0.3,0.5-0.3c-0.5-3-1-5.8-1.5-8.9
			c-5.3-47.3-19.6-90.2-39.9-131.1c-21.3-42.9-48.8-80.8-92.7-102.9c-1.3-0.8-2.8-1.3-4.1-2c-56.4-29-122-9.9-153.2,46.8
			C235,991.2,249.4,1049.6,288.3,1076.3z"/>
		<path class="st0" d="M1319.4,1274.2c-3.8,7.4-8.4,14.5-13.5,21.6c-2.3,3.3-4.6,6.6-6.6,9.9c-7.1,6.6-14,13-21.1,19.6
			c1.5,1.8,2.8,3.3,4.3,5.1c4.1-3,8.1-6.1,12.2-9.1c0.8,0.8,1.5,1.3,2.3,2c7.1-6.4,14-13.2,21.1-19.6c2.5-2,5.3-4.1,7.9-5.8
			c32.5-22.1,50.8-54.1,59.7-91c4.3-17.8,4.1-33.8-0.3-47.5c-7.6-27.4-31.3-45.5-64.3-46.5c-4.6-0.5-9.4-0.5-14.5-0.5
			c0.3,0.3,0.5,0.5,0.8,1c-1.8,0.3-3.6,0.3-5.1,0.5c3.8,1.5,7.4,3.3,10.4,5.3C1352.7,1168.5,1343.6,1220.9,1319.4,1274.2z"/>
		<path class="st0" d="M1035.9,1374.1c-1,1.3-2.3,2.5-3.6,3.6c-1-1.3-2.3-2.5-3.6-3.6c-17,17.8-34.6,36.6-53.1,56.2
			c18,16,35.3,31.3,52.6,46.8c1.3,1.3,2.5,2.5,3.8,3.6l0,0l0,0c1.3-1.3,2.5-2.5,3.8-3.6c17.3-15.2,34.6-30.7,52.6-46.8
			C1070.4,1410.7,1052.6,1392.1,1035.9,1374.1z"/>
	</g>
</g>
</svg>
